<?xml version="1.0" encoding="UTF-8"?>
<svg version="1.1" xmlns="http://www.w3.org/2000/svg" width="842" height="596">
<path d="M0 0 C14.19 0 28.38 0 43 0 C43 53.13 43 106.26 43 161 C79.815625 160.87625 79.815625 160.87625 117.375 160.75 C125.11501465 160.73420898 132.8550293 160.71841797 140.82958984 160.70214844 C147.78829836 160.6689146 147.78829836 160.6689146 154.74697876 160.63043213 C157.83825551 160.61347725 160.92933823 160.60756617 164.0206604 160.60845947 C167.97266111 160.60923435 171.9241486 160.59081157 175.8760159 160.55891085 C177.32083633 160.55043905 178.76571491 160.54852214 180.21054912 160.55417585 C189.01505192 160.58424757 198.09822093 160.50930511 204.93396568 154.22088242 C209.06658332 149.67963518 211.48541688 145.59450218 211.3203125 139.28515625 C210.38832304 132.63620704 207.37906299 127.00464342 203 122 C203 121.34 203 120.68 203 120 C202.38125 119.7525 201.7625 119.505 201.125 119.25 C198.62519797 117.77952822 198.16683978 116.58596924 197 114 C197.71285156 113.29875 198.42570313 112.5975 199.16015625 111.875 C205.63271707 105.48108378 205.63271707 105.48108378 211.75 98.75 C214.02766405 96.11184235 216.30966417 93.48625849 218.6875 90.9375 C219.22761719 90.34839844 219.76773438 89.75929688 220.32421875 89.15234375 C222 88 222 88 223.81640625 88.0546875 C236.53105961 93.55906337 243.15515303 103.89378349 248.3359375 116.1640625 C254.1928358 131.57476655 254.02973493 149.52283525 247.40625 164.63671875 C238.65536625 182.9268332 224.09627784 195.21021232 205 202 C190.86177574 206.71274142 172.758845 204.2175186 157.99340272 204.30332303 C154.30960119 204.32562183 150.62583531 204.35283387 146.94206238 204.37937927 C140.72970263 204.42345552 134.51732851 204.46421537 128.30493164 204.50268555 C120.48372307 204.55113442 112.66256232 204.60500897 104.84140205 204.66065407 C70.89410683 204.90206703 36.94835102 205.07837879 3 205 C2.02123365 188.04395421 1.71715991 171.08962975 1.49474788 154.11020064 C1.44362915 150.25591548 1.38882521 146.40168219 1.33460999 142.54743958 C1.24394181 136.06152508 1.15611849 129.57557692 1.07006836 123.08959961 C0.98290856 116.52217246 0.89280604 109.95479475 0.79956055 103.38745117 C0.31048597 68.92283854 -0.13092909 34.46926616 0 0 Z " fill="#0F7663" transform="translate(128,209)"/>
<path d="M0 0 C-0.62900681 16.34333201 -2.1091479 32.61045554 -3.58398438 48.89404297 C-3.93519813 52.77256129 -4.2798634 56.65163109 -4.62277222 60.53089142 C-4.88953722 63.5405014 -5.15972808 66.54979617 -5.43096924 69.55900574 C-5.55962341 70.99104725 -5.68719889 72.4231861 -5.81365967 73.85542297 C-5.9894588 75.84077747 -6.17038702 77.82567579 -6.3515625 79.81054688 C-6.50359131 81.49996399 -6.50359131 81.49996399 -6.65869141 83.22351074 C-7 86 -7 86 -8 89 C-11.92350218 87.38389077 -14.71405354 84.68680596 -17.75 81.8125 C-18.81183523 80.82220339 -19.87433732 79.83262134 -20.9375 78.84375 C-21.45570313 78.36035156 -21.97390625 77.87695312 -22.5078125 77.37890625 C-25.60838039 74.51372178 -28.80720957 71.76121902 -32 69 C-36.75511091 72.86243579 -40.8551916 76.90430291 -44.75 81.625 C-48.67858682 86.29948952 -52.66465319 90.89356745 -56.8125 95.375 C-61.89734891 100.87876859 -66.85141293 106.47287845 -71.70703125 112.1796875 C-77.0521871 118.45439773 -82.45915786 124.63654327 -88.06982422 130.67529297 C-90.96748224 133.81503117 -93.70346573 137.04166489 -96.375 140.375 C-100.98571639 146.10522487 -105.97756638 151.43085078 -111.00390625 156.79296875 C-115.38116714 161.4639332 -119.5514289 166.29747541 -123.69921875 171.171875 C-124.2005835 171.7596875 -124.70194824 172.3475 -125.21850586 172.953125 C-126.18903088 174.09182485 -127.15754537 175.23224391 -128.12329102 176.375 C-129.12150207 177.54731167 -130.14644848 178.69713297 -131.19018555 179.82910156 C-133.14393143 182.05778693 -133.14393143 182.05778693 -134.85083008 185.10058594 C-137.9736807 189.89751144 -141.05884521 193.35289897 -146.82794189 194.62219238 C-155.26989695 195.51517632 -163.72361608 195.09054724 -172.1875 194.75 C-174.78698632 194.68974647 -177.38660659 194.63500428 -179.98632812 194.5859375 C-186.32716131 194.45431266 -192.66295467 194.25407908 -199 194 C-197.25379494 190.96159028 -195.5246324 188.27066711 -193.109375 185.73046875 C-192.56829102 185.15586914 -192.02720703 184.58126953 -191.46972656 183.98925781 C-190.9022168 183.39467773 -190.33470703 182.80009766 -189.75 182.1875 C-188.57208626 180.93697958 -187.39499529 179.68568365 -186.21875 178.43359375 C-185.37763672 177.54003174 -185.37763672 177.54003174 -184.51953125 176.62841797 C-182.17309368 174.11383915 -179.91894656 171.52491829 -177.671875 168.921875 C-175.64241927 166.58894926 -173.572353 164.29488755 -171.5 162 C-168.81016569 159.01937279 -166.13689636 156.02754767 -163.5 153 C-160.10746907 149.10487189 -156.64805799 145.27217237 -153.1875 141.4375 C-151.27445851 139.30582519 -149.38112388 137.1598089 -147.5 135 C-144.10746907 131.10487189 -140.64805799 127.27217237 -137.1875 123.4375 C-135.27445851 121.30582519 -133.38112388 119.1598089 -131.5 117 C-128.10746907 113.10487189 -124.64805799 109.27217237 -121.1875 105.4375 C-119.27445851 103.30582519 -117.38112388 101.1598089 -115.5 99 C-112.10746907 95.10487189 -108.64805799 91.27217237 -105.1875 87.4375 C-103.27445851 85.30582519 -101.38112388 83.1598089 -99.5 81 C-96.10746907 77.10487189 -92.64805799 73.27217237 -89.1875 69.4375 C-86.70373361 66.66987459 -84.25831133 63.87091441 -81.81640625 61.06640625 C-79.71083512 58.67103608 -77.57551312 56.30394858 -75.4375 53.9375 C-71.89303555 50.01067037 -68.42082097 46.03481448 -65 42 C-66.60154445 37.50707664 -70.12941769 35.06476832 -73.6875 32.125 C-74.89973958 31.10677083 -76.11197917 30.08854167 -77.32421875 29.0703125 C-79.21450306 27.48720574 -81.10894358 25.9109578 -83.01806641 24.35058594 C-83.977854 23.55442871 -83.977854 23.55442871 -84.95703125 22.7421875 C-85.54073486 22.26378418 -86.12443848 21.78538086 -86.72583008 21.29248047 C-88 20 -88 20 -88 18 C-69.75456055 14.06421676 -51.49540735 10.20184779 -33.21728516 6.42041016 C-29.94460872 5.74291747 -26.67236369 5.06340881 -23.40030479 4.38294411 C-20.23338093 3.72488642 -17.06587535 3.06964098 -13.8984375 2.4140625 C-12.7279184 2.17039948 -11.55739929 1.92673645 -10.35140991 1.6756897 C-8.74539413 1.34436539 -8.74539413 1.34436539 -7.10693359 1.00634766 C-6.16546478 0.81126617 -5.22399597 0.61618469 -4.2539978 0.41519165 C-2 0 -2 0 0 0 Z " fill="#0F7663" transform="translate(426,166)"/>
<path d="M0 0 C13.2 0 26.4 0 40 0 C40 36.96 40 73.92 40 112 C49.57 112 59.14 112 69 112 C67.54649394 114.90701213 66.34217154 117.03438747 64.41796875 119.546875 C63.90395508 120.21968506 63.38994141 120.89249512 62.86035156 121.58569336 C62.30831055 122.29991455 61.75626953 123.01413574 61.1875 123.75 C60.61870117 124.49064697 60.04990234 125.23129395 59.46386719 125.99438477 C54.76524156 132.08159216 49.94382911 138.06468955 45.05151367 143.99707031 C42.25263243 147.31347753 42.25263243 147.31347753 40 151 C26.8 151 13.6 151 0 151 C0 101.17 0 51.34 0 0 Z " fill="#0F7663" transform="translate(178,209)"/>
<path d="M0 0 C8.971875 -0.0928125 8.971875 -0.0928125 18.125 -0.1875 C20.00203613 -0.21481201 21.87907227 -0.24212402 23.81298828 -0.27026367 C25.31542316 -0.27903275 26.81786521 -0.28667569 28.3203125 -0.29296875 C29.47261353 -0.3159906 29.47261353 -0.3159906 30.64819336 -0.33947754 C37.02301382 -0.34255716 41.05705371 1.18658347 45.8125 5.625 C48.70998904 9.40392584 49.27751881 13.31482954 49 18 C47.4505038 23.25107046 45.52681628 25.94134035 41 29 C41.9075 29.53625 42.815 30.0725 43.75 30.625 C47.6379393 33.25372492 50.2455855 36.29622249 51.53515625 40.91796875 C52.52474368 46.7986205 51.48483109 51.54431781 48.375 56.6875 C43.42480021 61.50743137 38.12620248 63.45693888 31.26855469 63.45263672 C30.48899414 63.43217285 29.70943359 63.41170898 28.90625 63.390625 C28.16729492 63.38659668 27.42833984 63.38256836 26.66699219 63.37841797 C23.94440364 63.357716 21.22217306 63.30187277 18.5 63.25 C9.3425 63.12625 9.3425 63.12625 0 63 C0 42.21 0 21.42 0 0 Z M17 12 C17 16.29 17 20.58 17 25 C23.49886055 25.61721358 23.49886055 25.61721358 29.125 22.8125 C31.24268134 20.19934538 31.24268134 20.19934538 31 17.375 C29.92457408 14.82086345 29.17916834 13.68631874 27 12 C24.48710325 11.63786432 24.48710325 11.63786432 21.8125 11.8125 C20.224375 11.874375 18.63625 11.93625 17 12 Z M17 35 C17 40.28 17 45.56 17 51 C25.07283244 51.58171243 25.07283244 51.58171243 32 48 C34.31537595 45.18291805 34.31537595 45.18291805 33.8125 42 C32.98173446 38.93255801 32.55733651 37.79960718 30 36 C27.02610193 35.06222653 24.35762693 34.8917996 21.25 34.9375 C19.8475 34.958125 18.445 34.97875 17 35 Z " fill="#107764" transform="translate(462,316)"/>
<path d="M0 0 C5.28 0 10.56 0 16 0 C16.33 10.56 16.66 21.12 17 32 C18.423125 29.69 19.84625 27.38 21.3125 25 C23.79766689 21.44283151 26.08651171 18.53182912 30.38574219 17.33691406 C35.97505068 16.7582712 41.4461874 17.27483898 47 18 C42.21438076 24.51367235 37.15149925 30.77240979 32 37 C33.35334642 40.7123678 35.03841869 43.78265887 37.2578125 47.046875 C37.88300781 47.97371094 38.50820313 48.90054688 39.15234375 49.85546875 C39.80332031 50.81066406 40.45429687 51.76585937 41.125 52.75 C42.42124399 54.6601208 43.71562418 56.57150823 45.0078125 58.484375 C45.58160645 59.32709961 46.15540039 60.16982422 46.74658203 61.03808594 C48 63 48 63 48 64 C31.14086451 65.68251453 31.14086451 65.68251453 26.0625 61.69140625 C24.08614481 58.87285425 22.51683426 56.08537878 21 53 C20.03042064 51.64438441 19.04115841 50.30144802 18 49 C16.58365167 51.83269666 16.6536995 54.47466438 16.4375 57.625 C16.293125 59.72875 16.14875 61.8325 16 64 C10.72 64 5.44 64 0 64 C0 42.88 0 21.76 0 0 Z " fill="#107764" transform="translate(680,315)"/>
<path d="M0 0 C5.28 0 10.56 0 16 0 C16.33 10.56 16.66 21.12 17 32 C18.423125 29.69 19.84625 27.38 21.3125 25 C23.79766689 21.44283151 26.08651171 18.53182912 30.38574219 17.33691406 C35.97505068 16.7582712 41.4461874 17.27483898 47 18 C42.21438076 24.51367235 37.15149925 30.77240979 32 37 C33.35334642 40.7123678 35.03841869 43.78265887 37.2578125 47.046875 C37.88300781 47.97371094 38.50820313 48.90054688 39.15234375 49.85546875 C39.80332031 50.81066406 40.45429687 51.76585937 41.125 52.75 C42.42124399 54.6601208 43.71562418 56.57150823 45.0078125 58.484375 C45.58160645 59.32709961 46.15540039 60.16982422 46.74658203 61.03808594 C48 63 48 63 48 64 C31.14086451 65.68251453 31.14086451 65.68251453 26.0625 61.69140625 C24.08614481 58.87285425 22.51683426 56.08537878 21 53 C20.03042064 51.64438441 19.04115841 50.30144802 18 49 C16.58365167 51.83269666 16.6536995 54.47466438 16.4375 57.625 C16.293125 59.72875 16.14875 61.8325 16 64 C10.72 64 5.44 64 0 64 C0 42.88 0 21.76 0 0 Z " fill="#107764" transform="translate(585,208)"/>
<path d="M0 0 C5.28 0 10.56 0 16 0 C16.04898438 1.97484375 16.09796875 3.9496875 16.1484375 5.984375 C16.22346811 8.57293092 16.29901581 11.16147189 16.375 13.75 C16.4059375 15.05195313 16.436875 16.35390625 16.46875 17.6953125 C16.50742187 18.94570313 16.54609375 20.19609375 16.5859375 21.484375 C16.63306885 23.21252441 16.63306885 23.21252441 16.68115234 24.97558594 C16.9863337 27.87036897 17.4047943 29.59184608 19 32 C21.49382541 33.16378519 22.58019256 33.14393398 25.1875 32.25 C27.31782938 31.04890402 27.31782938 31.04890402 28 28 C28.15070797 25.86338742 28.2485966 23.72287876 28.31640625 21.58203125 C28.35830078 20.32841797 28.40019531 19.07480469 28.44335938 17.78320312 C28.48267578 16.47287109 28.52199219 15.16253906 28.5625 13.8125 C28.60570992 12.47720022 28.649325 11.14191348 28.69335938 9.80664062 C28.79956434 6.53788766 28.90029785 3.26895777 29 0 C34.28 0 39.56 0 45 0 C45 15.18 45 30.36 45 46 C40.05 46 35.1 46 30 46 C29.34 44.68 28.68 43.36 28 42 C26.824375 42.9590625 26.824375 42.9590625 25.625 43.9375 C20.45931968 47.99624882 15.39344091 47.58502074 9 47 C4.27015681 44.92550737 2.52792153 42.74235394 0.60214233 38.00265503 C-0.45217819 34.49610819 -0.36786457 31.07559503 -0.29296875 27.44140625 C-0.28872391 26.65225327 -0.28447906 25.86310028 -0.28010559 25.05003357 C-0.26344452 22.55382739 -0.22581779 20.05845808 -0.1875 17.5625 C-0.17243683 15.86003778 -0.15875129 14.15756279 -0.14648438 12.45507812 C-0.11614633 8.30281134 -0.0574055 4.15233144 0 0 Z " fill="#107764" transform="translate(570,333)"/>
<path d="M0 0 C5.46372449 2.88898234 9.17847889 7.31072128 11.4296875 13.1328125 C13.18221322 20.8708876 13.00738648 29.3799769 9.26953125 36.47265625 C5.50852713 41.84394366 1.25037545 44.67360308 -5.0625 46.375 C-13.0434341 47.17124169 -20.44582033 47.32144985 -27.0625 42.375 C-32.52961617 37.63683265 -35.72786217 32.87973995 -36.265625 25.640625 C-36.3882286 17.75312688 -36.01235117 11.88293112 -30.75 5.625 C-21.8038664 -1.86478627 -11.26688515 -4.57895332 0 0 Z M-15.25 10.75 C-18.20528639 13.39956711 -19.24107769 16.5439402 -20.0625 20.375 C-20.26248921 24.56708156 -19.47917036 27.69970666 -17.25 31.3125 C-14.56855582 33.89944309 -14.56855582 33.89944309 -11.0625 34.375 C-8.02934109 33.07507475 -6.45580149 32.03050249 -4.75 29.1875 C-3.49056696 24.03527392 -3.53139985 19.96830046 -5.1875 15 C-6.90318837 12.17218343 -6.90318837 12.17218343 -10 10.875 C-12.91782929 10.22801324 -12.91782929 10.22801324 -15.25 10.75 Z " fill="#107764" transform="translate(553.0625,333.625)"/>
<path d="M0 0 C5.10991328 2.33083764 6.93468151 4.86826495 9 10 C9.3823885 12.90272354 9.35112704 15.75611272 9.29296875 18.6796875 C9.28872391 19.49245148 9.28447906 20.30521545 9.28010559 21.14260864 C9.26340804 23.72041959 9.22577362 26.2974282 9.1875 28.875 C9.17244158 30.63019699 9.1587552 32.38540631 9.14648438 34.140625 C9.11609441 38.42763578 9.05735925 42.71292739 9 47 C3.72 47 -1.56 47 -7 47 C-7.06058594 44.94136719 -7.12117187 42.88273437 -7.18359375 40.76171875 C-7.24617658 38.76602171 -7.30879126 36.77032553 -7.37231445 34.7746582 C-7.41560218 33.38864017 -7.45728164 32.00257094 -7.49731445 30.61645508 C-7.55516584 28.62308202 -7.61929776 26.62989435 -7.68359375 24.63671875 C-7.72025146 23.43748779 -7.75690918 22.23825684 -7.79467773 21.00268555 C-7.87733025 17.95005651 -7.87733025 17.95005651 -9 15 C-11.97 14.505 -11.97 14.505 -15 14 C-17.79339715 17.9705913 -18.40157657 20.78905387 -18.51171875 25.61328125 C-18.54716797 26.86044922 -18.58261719 28.10761719 -18.61914062 29.39257812 C-18.64169922 30.68615234 -18.66425781 31.97972656 -18.6875 33.3125 C-18.72166016 34.62541016 -18.75582031 35.93832031 -18.79101562 37.29101562 C-18.87338729 40.52704519 -18.93837279 43.76350892 -19 47 C-24.28 47 -29.56 47 -35 47 C-35 31.82 -35 16.64 -35 1 C-30.05 1 -25.1 1 -20 1 C-19.34 1.99 -18.68 2.98 -18 4 C-17.2575 3.34 -16.515 2.68 -15.75 2 C-10.98466264 -1.17689157 -5.4831257 -0.73710057 0 0 Z " fill="#107764" transform="translate(568,225)"/>
<path d="M0 0 C14.19 0 28.38 0 43 0 C43 53.13 43 106.26 43 161 C79.815625 160.87625 79.815625 160.87625 117.375 160.75 C125.11501465 160.73420898 132.8550293 160.71841797 140.82958984 160.70214844 C147.78829836 160.6689146 147.78829836 160.6689146 154.74697876 160.63043213 C157.83825551 160.61347725 160.92933823 160.60756617 164.0206604 160.60845947 C167.97266111 160.60923435 171.9241486 160.59081157 175.8760159 160.55891085 C177.32083633 160.55043905 178.76571491 160.54852214 180.21054912 160.55417585 C189.01505192 160.58424757 198.09822093 160.50930511 204.93396568 154.22088242 C209.06658332 149.67963518 211.48541688 145.59450218 211.3203125 139.28515625 C210.38832304 132.63620704 207.37906299 127.00464342 203 122 C203 121.34 203 120.68 203 120 C202.38125 119.7525 201.7625 119.505 201.125 119.25 C198.62519797 117.77952822 198.16683978 116.58596924 197 114 C197.71285156 113.29875 198.42570313 112.5975 199.16015625 111.875 C205.63271707 105.48108378 205.63271707 105.48108378 211.75 98.75 C214.02766405 96.11184235 216.30966417 93.48625849 218.6875 90.9375 C219.22761719 90.34839844 219.76773438 89.75929688 220.32421875 89.15234375 C222 88 222 88 223.81640625 88.0546875 C236.53105961 93.55906337 243.15515303 103.89378349 248.3359375 116.1640625 C254.1928358 131.57476655 254.02973493 149.52283525 247.40625 164.63671875 C238.65536625 182.9268332 224.09627784 195.21021232 205 202 C190.86177574 206.71274142 172.758845 204.2175186 157.99340272 204.30332303 C154.30960119 204.32562183 150.62583531 204.35283387 146.94206238 204.37937927 C140.72970263 204.42345552 134.51732851 204.46421537 128.30493164 204.50268555 C120.48372307 204.55113442 112.66256232 204.60500897 104.84140205 204.66065407 C70.89410683 204.90206703 36.94835102 205.07837879 3 205 C2.02123365 188.04395421 1.71715991 171.08962975 1.49474788 154.11020064 C1.44362915 150.25591548 1.38882521 146.40168219 1.33460999 142.54743958 C1.24394181 136.06152508 1.15611849 129.57557692 1.07006836 123.08959961 C0.98290856 116.52217246 0.89280604 109.95479475 0.79956055 103.38745117 C0.31048597 68.92283854 -0.13092909 34.46926616 0 0 Z M2 2 C1.9418939 11.68757787 1.89636876 21.37481517 1.875 31.0625 C1.87328796 31.83270226 1.87157593 32.60290451 1.86981201 33.39644623 C1.79806326 70.31130017 2.39293851 107.21649489 3 144.125 C3.01194743 144.8522687 3.02389486 145.5795374 3.03620434 146.32884455 C3.34675001 165.21941478 3.66790661 184.10979549 4 203 C22.189768 203.02370669 40.37953182 203.04115953 58.5693121 203.05181217 C67.02139249 203.05689706 75.47346297 203.06382417 83.92553711 203.07543945 C105.95056288 203.10485119 127.97514003 203.09916883 150 203 C151.00925144 202.99563572 151.00925144 202.99563572 152.03889179 202.99118328 C159.81985836 202.95662105 167.59981603 202.8972558 175.38009834 202.78719902 C177.42358674 202.76030936 179.46716764 202.73956863 181.51078606 202.72572517 C201.99618883 202.57225003 217.74694752 197.30263432 233 183 C245.8408189 169.47048666 251.42059987 152.99959767 251.20703125 134.61328125 C250.35862938 119.80626742 243.47227168 105.67757529 232.54296875 95.7734375 C228.93203423 92.66359089 228.93203423 92.66359089 225 90 C221.34595407 90.35582295 219.73954176 91.95822091 217.3203125 94.60546875 C216.63839844 95.34216797 215.95648438 96.07886719 215.25390625 96.83789062 C214.20009766 98.00094727 214.20009766 98.00094727 213.125 99.1875 C211.73261071 100.70259521 210.3393948 102.21693119 208.9453125 103.73046875 C208.28047852 104.4579834 207.61564453 105.18549805 206.93066406 105.93505859 C205.16555899 107.82292641 203.35038368 109.6303251 201.4921875 111.42578125 C198.76814443 113.64232721 198.76814443 113.64232721 199 116 C199.886875 116.70125 200.77375 117.4025 201.6875 118.125 C207.77097119 123.03195082 211.53369377 130.37001713 213 138 C213.25094465 144.0628228 211.96895796 148.29991821 208 153 C202.2980074 158.64781689 197.72308099 161.23859232 189.514328 161.2784729 C188.20597835 161.28962442 186.89762869 161.30077595 185.54963207 161.3122654 C184.10104079 161.3146327 182.65244921 161.31682002 181.20385742 161.31884766 C179.65133547 161.32826092 178.09881856 161.33854042 176.54630756 161.3496151 C172.39251774 161.37685758 168.23876329 161.39225955 164.08490753 161.40519714 C160.18566708 161.41913907 156.28652266 161.44377497 152.3873291 161.4675293 C140.98744056 161.53075569 129.58746212 161.57683195 118.1875 161.625 C92.715625 161.74875 67.24375 161.8725 41 162 C41 109.2 41 56.4 41 2 C28.13 2 15.26 2 2 2 Z " fill="#014D38" transform="translate(128,209)"/>
<path d="M0 0 C5.61 0 11.22 0 17 0 C17 16.17 17 32.34 17 49 C25.25 49 33.5 49 42 49 C42 53.62 42 58.24 42 63 C28.14 63 14.28 63 0 63 C0 42.21 0 21.42 0 0 Z " fill="#107764" transform="translate(462,209)"/>
<path d="M0 0 C5.28 0 10.56 0 16 0 C16 3.96 16 7.92 16 12 C18.64 12 21.28 12 24 12 C24 15.96 24 19.92 24 24 C21.36 24 18.72 24 16 24 C16.13857841 27.12536637 16.28709569 30.25018217 16.4375 33.375 C16.47681641 34.26445312 16.51613281 35.15390625 16.55664062 36.0703125 C16.59853516 36.92109375 16.64042969 37.771875 16.68359375 38.6484375 C16.72025146 39.43395996 16.75690918 40.21948242 16.79467773 41.02880859 C16.890891 43.07523496 16.890891 43.07523496 18 45 C20.32156597 45.40729228 22.6568787 45.74438677 25 46 C25.02686553 47.97909398 25.04633375 49.95828971 25.0625 51.9375 C25.07410156 53.03964844 25.08570313 54.14179688 25.09765625 55.27734375 C25 58 25 58 24 59 C21.58646168 59.18153617 19.22875181 59.27814571 16.8125 59.3125 C15.49894531 59.34988281 14.18539062 59.38726562 12.83203125 59.42578125 C8.36122749 58.92902528 6.37392881 57.94425336 3 55 C-1.24146966 49.43362682 -0.3342447 42.79247734 -0.1875 36.125 C-0.17396484 34.9596875 -0.16042969 33.794375 -0.14648438 32.59375 C-0.11125821 29.72868882 -0.06199715 26.86458623 0 24 C-1.98 24 -3.96 24 -6 24 C-6 20.04 -6 16.08 -6 12 C-4.02 12 -2.04 12 0 12 C0 8.04 0 4.08 0 0 Z " fill="#107764" transform="translate(625,321)"/>
<path d="M0 0 C-0.62900681 16.34333201 -2.1091479 32.61045554 -3.58398438 48.89404297 C-3.93519813 52.77256129 -4.2798634 56.65163109 -4.62277222 60.53089142 C-4.88953722 63.5405014 -5.15972808 66.54979617 -5.43096924 69.55900574 C-5.55962341 70.99104725 -5.68719889 72.4231861 -5.81365967 73.85542297 C-5.9894588 75.84077747 -6.17038702 77.82567579 -6.3515625 79.81054688 C-6.50359131 81.49996399 -6.50359131 81.49996399 -6.65869141 83.22351074 C-7 86 -7 86 -8 89 C-11.92350218 87.38389077 -14.71405354 84.68680596 -17.75 81.8125 C-18.81183523 80.82220339 -19.87433732 79.83262134 -20.9375 78.84375 C-21.45570313 78.36035156 -21.97390625 77.87695312 -22.5078125 77.37890625 C-25.60838039 74.51372178 -28.80720957 71.76121902 -32 69 C-36.75511091 72.86243579 -40.8551916 76.90430291 -44.75 81.625 C-48.67858682 86.29948952 -52.66465319 90.89356745 -56.8125 95.375 C-61.89734891 100.87876859 -66.85141293 106.47287845 -71.70703125 112.1796875 C-77.0521871 118.45439773 -82.45915786 124.63654327 -88.06982422 130.67529297 C-90.96748224 133.81503117 -93.70346573 137.04166489 -96.375 140.375 C-100.98571639 146.10522487 -105.97756638 151.43085078 -111.00390625 156.79296875 C-115.38116714 161.4639332 -119.5514289 166.29747541 -123.69921875 171.171875 C-124.2005835 171.7596875 -124.70194824 172.3475 -125.21850586 172.953125 C-126.18903088 174.09182485 -127.15754537 175.23224391 -128.12329102 176.375 C-129.12150207 177.54731167 -130.14644848 178.69713297 -131.19018555 179.82910156 C-133.14393143 182.05778693 -133.14393143 182.05778693 -134.85083008 185.10058594 C-137.9736807 189.89751144 -141.05884521 193.35289897 -146.82794189 194.62219238 C-155.26989695 195.51517632 -163.72361608 195.09054724 -172.1875 194.75 C-174.78698632 194.68974647 -177.38660659 194.63500428 -179.98632812 194.5859375 C-186.32716131 194.45431266 -192.66295467 194.25407908 -199 194 C-197.25379494 190.96159028 -195.5246324 188.27066711 -193.109375 185.73046875 C-192.56829102 185.15586914 -192.02720703 184.58126953 -191.46972656 183.98925781 C-190.9022168 183.39467773 -190.33470703 182.80009766 -189.75 182.1875 C-188.57208626 180.93697958 -187.39499529 179.68568365 -186.21875 178.43359375 C-185.37763672 177.54003174 -185.37763672 177.54003174 -184.51953125 176.62841797 C-182.17309368 174.11383915 -179.91894656 171.52491829 -177.671875 168.921875 C-175.64241927 166.58894926 -173.572353 164.29488755 -171.5 162 C-168.81016569 159.01937279 -166.13689636 156.02754767 -163.5 153 C-160.10746907 149.10487189 -156.64805799 145.27217237 -153.1875 141.4375 C-151.27445851 139.30582519 -149.38112388 137.1598089 -147.5 135 C-144.10746907 131.10487189 -140.64805799 127.27217237 -137.1875 123.4375 C-135.27445851 121.30582519 -133.38112388 119.1598089 -131.5 117 C-128.10746907 113.10487189 -124.64805799 109.27217237 -121.1875 105.4375 C-119.27445851 103.30582519 -117.38112388 101.1598089 -115.5 99 C-112.10746907 95.10487189 -108.64805799 91.27217237 -105.1875 87.4375 C-103.27445851 85.30582519 -101.38112388 83.1598089 -99.5 81 C-96.10746907 77.10487189 -92.64805799 73.27217237 -89.1875 69.4375 C-86.70373361 66.66987459 -84.25831133 63.87091441 -81.81640625 61.06640625 C-79.71083512 58.67103608 -77.57551312 56.30394858 -75.4375 53.9375 C-71.89303555 50.01067037 -68.42082097 46.03481448 -65 42 C-66.60154445 37.50707664 -70.12941769 35.06476832 -73.6875 32.125 C-74.89973958 31.10677083 -76.11197917 30.08854167 -77.32421875 29.0703125 C-79.21450306 27.48720574 -81.10894358 25.9109578 -83.01806641 24.35058594 C-83.977854 23.55442871 -83.977854 23.55442871 -84.95703125 22.7421875 C-85.54073486 22.26378418 -86.12443848 21.78538086 -86.72583008 21.29248047 C-88 20 -88 20 -88 18 C-69.75456055 14.06421676 -51.49540735 10.20184779 -33.21728516 6.42041016 C-29.94460872 5.74291747 -26.67236369 5.06340881 -23.40030479 4.38294411 C-20.23338093 3.72488642 -17.06587535 3.06964098 -13.8984375 2.4140625 C-12.7279184 2.17039948 -11.55739929 1.92673645 -10.35140991 1.6756897 C-8.74539413 1.34436539 -8.74539413 1.34436539 -7.10693359 1.00634766 C-6.16546478 0.81126617 -5.22399597 0.61618469 -4.2539978 0.41519165 C-2 0 -2 0 0 0 Z M-9.83813477 3.12988281 C-11.64260826 3.50092133 -11.64260826 3.50092133 -13.48353577 3.87945557 C-14.80284668 4.1539123 -16.12213627 4.42847157 -17.44140625 4.703125 C-18.80642723 4.98522618 -20.17149458 5.2671031 -21.53660583 5.54876709 C-24.40947042 6.14217294 -27.28191473 6.7375602 -30.15405273 7.33447266 C-33.78085161 8.08817526 -37.40839755 8.83820019 -41.0362339 9.58689117 C-55.71472468 12.61694016 -70.38635066 15.66833795 -85 19 C-84.21463867 19.95213379 -83.42927734 20.90426758 -82.62011719 21.88525391 C-82.17835144 22.42082916 -81.73658569 22.95640442 -81.28143311 23.50820923 C-79.73394769 25.30972696 -78.06589662 26.84623233 -76.25 28.375 C-75.57453125 28.95121094 -74.8990625 29.52742188 -74.203125 30.12109375 C-73.47609375 30.74113281 -72.7490625 31.36117187 -72 32 C-70.33005466 33.47546412 -68.66335155 34.9546064 -67 36.4375 C-66.236875 37.11683594 -65.47375 37.79617187 -64.6875 38.49609375 C-64.130625 38.99238281 -63.57375 39.48867187 -63 40 C-64.52079073 43.50827915 -66.5995673 45.95271646 -69.1875 48.75 C-69.99574219 49.63171875 -70.80398438 50.5134375 -71.63671875 51.421875 C-72.41660156 52.27265625 -73.19648438 53.1234375 -74 54 C-75.17161061 55.32899114 -76.33873392 56.6619604 -77.5 58 C-80.89253093 61.89512811 -84.35194201 65.72782763 -87.8125 69.5625 C-89.72554149 71.69417481 -91.61887612 73.8401911 -93.5 76 C-96.89253093 79.89512811 -100.35194201 83.72782763 -103.8125 87.5625 C-105.72554149 89.69417481 -107.61887612 91.8401911 -109.5 94 C-112.89253093 97.89512811 -116.35194201 101.72782763 -119.8125 105.5625 C-121.72554149 107.69417481 -123.61887612 109.8401911 -125.5 112 C-128.89253093 115.89512811 -132.35194201 119.72782763 -135.8125 123.5625 C-137.72554149 125.69417481 -139.61887612 127.8401911 -141.5 130 C-144.89374015 133.89651647 -148.35430003 137.73064945 -151.81640625 141.56640625 C-153.70848685 143.67511146 -155.57905758 145.79919801 -157.4375 147.9375 C-161.08937053 152.13164365 -164.84266184 156.23094292 -168.58984375 160.33984375 C-171.16993136 163.18755795 -173.70201856 166.07244018 -176.22265625 168.97265625 C-178.29359487 171.33489173 -180.39512848 173.66795853 -182.5 176 C-183.25410156 176.83789062 -184.00820312 177.67578125 -184.78515625 178.5390625 C-186.2073349 180.119261 -187.63163453 181.69755464 -189.05859375 183.2734375 C-189.67863281 183.96695313 -190.29867187 184.66046875 -190.9375 185.375 C-191.75541016 186.28378906 -191.75541016 186.28378906 -192.58984375 187.2109375 C-194.04368571 189.05542398 -194.98178945 190.89160899 -196 193 C-188.93937371 193.30617628 -181.88047597 193.51516626 -174.81469727 193.65917969 C-172.41560928 193.71924974 -170.01695558 193.80093851 -167.61938477 193.90527344 C-153.61967234 195.15694704 -153.61967234 195.15694704 -141.02954102 190.41162109 C-138.1864299 187.59369839 -136.08735297 184.41195471 -134 181 C-132.88334253 179.68302889 -131.74441046 178.38373924 -130.5625 177.125 C-128.45719103 174.703141 -126.37245145 172.26432887 -124.29296875 169.8203125 C-118.4655094 162.97880293 -112.54343269 156.25747892 -106.4453125 149.65625 C-102.28495473 145.13701153 -98.27314465 140.49821391 -94.29296875 135.8203125 C-88.9478129 129.54560227 -83.54084214 123.36345673 -77.93017578 117.32470703 C-75.03251776 114.18496883 -72.29653427 110.95833511 -69.625 107.625 C-65.01544363 101.89621682 -60.02490145 96.57186631 -55 91.2109375 C-47.6922122 83.41266395 -40.8862621 75.16887511 -34 67 C-30.52364612 68.50800739 -28.13370098 70.54601895 -25.375 73.125 C-17.89374496 81.15094914 -17.89374496 81.15094914 -9 86 C-6.6924801 67.15527935 -4.89555095 48.29311304 -3.3125 29.375 C-3.08608948 26.69915038 -2.85848639 24.02340263 -2.63085938 21.34765625 C-2.08314098 14.89877882 -1.53975243 8.44954879 -1 2 C-4.13482858 2 -6.76867217 2.49501397 -9.83813477 3.12988281 Z " fill="#014C37" transform="translate(426,166)"/>
<path d="M0 0 C5.28 0 10.56 0 16 0 C16 15.18 16 30.36 16 46 C10.72 46 5.44 46 0 46 C0 30.82 0 15.64 0 0 Z " fill="#107764" transform="translate(656,333)"/>
<path d="M0 0 C5.28 0 10.56 0 16 0 C16 15.18 16 30.36 16 46 C10.72 46 5.44 46 0 46 C0 30.82 0 15.64 0 0 Z " fill="#107764" transform="translate(510,226)"/>
<path d="M0 0 C13.2 0 26.4 0 40 0 C40 36.96 40 73.92 40 112 C49.57 112 59.14 112 69 112 C67.54649394 114.90701213 66.34217154 117.03438747 64.41796875 119.546875 C63.90395508 120.21968506 63.38994141 120.89249512 62.86035156 121.58569336 C62.30831055 122.29991455 61.75626953 123.01413574 61.1875 123.75 C60.61870117 124.49064697 60.04990234 125.23129395 59.46386719 125.99438477 C54.76524156 132.08159216 49.94382911 138.06468955 45.05151367 143.99707031 C42.25263243 147.31347753 42.25263243 147.31347753 40 151 C26.8 151 13.6 151 0 151 C0 101.17 0 51.34 0 0 Z M1 2 C1 50.84 1 99.68 1 150 C13.21 150 25.42 150 38 150 C45.9566948 140.49106377 45.9566948 140.49106377 53.6875 130.8125 C54.36776245 129.94105347 54.36776245 129.94105347 55.06176758 129.05200195 C55.9585911 127.90276279 56.85470359 126.7529683 57.75 125.60253906 C58.91133835 124.11366701 60.08035853 122.63079561 61.25 121.1484375 C61.889375 120.33632813 62.52875 119.52421875 63.1875 118.6875 C63.73792969 117.99011719 64.28835937 117.29273438 64.85546875 116.57421875 C66.09800873 115.18958093 66.09800873 115.18958093 66 114 C56.76 114 47.52 114 38 114 C38 77.04 38 40.08 38 2 C25.79 2 13.58 2 1 2 Z " fill="#014C37" transform="translate(178,209)"/>
<path d="M0 0 C3.34238038 2.14255152 3.89167954 3.60282498 4.9375 7.4375 C5.00698608 11.39820668 4.43366566 12.93538398 2 16 C-1.46822926 17.73411463 -5.2079795 17.45800603 -9 17 C-11.5625 15.5625 -11.5625 15.5625 -13 13 C-13.59785451 9.86701245 -13.64850375 7.12773935 -13 4 C-9.31821488 -0.71728718 -5.57290974 -0.70767108 0 0 Z " fill="#107764" transform="translate(668,311)"/>
<path d="M0 0 C3.34238038 2.14255152 3.89167954 3.60282498 4.9375 7.4375 C5.00698608 11.39820668 4.43366566 12.93538398 2 16 C-1.46822926 17.73411463 -5.2079795 17.45800603 -9 17 C-11.5625 15.5625 -11.5625 15.5625 -13 13 C-13.59785451 9.86701245 -13.64850375 7.12773935 -13 4 C-9.31821488 -0.71728718 -5.57290974 -0.70767108 0 0 Z " fill="#107764" transform="translate(522,204)"/>
</svg>
