<?xml version="1.0" encoding="UTF-8"?>
<svg version="1.1" xmlns="http://www.w3.org/2000/svg" width="843" height="596">
<path d="M0 0 C12.21 0 24.42 0 37 0 C37 45.21 37 90.42 37 137 C57.975625 136.896875 78.95125 136.79375 100.5625 136.6875 C107.18127197 136.66260498 113.80004395 136.63770996 120.61938477 136.61206055 C126.56158993 136.57548857 126.56158993 136.57548857 132.50376892 136.5349884 C135.14691833 136.51885648 137.78968778 136.5074518 140.43284607 136.50288391 C144.44054358 136.49563318 148.44774944 136.46480283 152.45532227 136.43237305 C154.21626771 136.43451199 154.21626771 136.43451199 156.01278782 136.43669415 C164.50130467 136.33861875 170.68861604 135.13606774 177 129 C180.04141755 124.64063485 180.37757951 121.38591986 179.56640625 116.296875 C177.72706701 108.83803724 173.62668985 104.05769874 168 99 C169.41738489 95.74792908 171.12526412 93.68638933 173.6875 91.25 C177.06267095 87.97248318 180.16142471 84.5769626 183.1640625 80.95703125 C185.58789135 78.37333284 188.24842163 76.23132196 191 74 C203.48332472 83.90887051 211.4318273 92.96000107 215 109 C216.64394772 127.50064756 212.47563398 141.76505235 200.6875 156.25 C191.46556786 166.29348512 178.55847103 172.89425989 164.98535156 173.54272461 C164.11903233 173.58454581 163.25271309 173.62636702 162.36014175 173.66945553 C148.47846753 174.26521288 134.57495741 174.23225232 120.68275738 174.30332303 C116.53215775 174.32550225 112.38159098 174.35273152 108.23101807 174.37937927 C100.40477351 174.42888188 92.5785103 174.47397429 84.75222993 174.51740164 C75.82809311 174.56714167 66.90398933 174.62192092 57.97988462 174.67708123 C39.65328722 174.79024808 21.32665848 174.8972239 3 175 C1.79286471 157.54338474 1.6962845 140.06239347 1.49474788 122.57257676 C1.44413019 118.25112408 1.38911944 113.92972717 1.33460999 109.60832214 C1.23243049 101.45623455 1.13410058 93.30410545 1.03721577 85.1519534 C0.92656687 75.85781862 0.81153196 66.56373967 0.69616115 57.2696625 C0.45928861 38.17983146 0.22839701 19.08993445 0 0 Z " fill="#0F7663" transform="translate(57,220)"/>
<path d="M0 0 C0.19138601 8.2335855 -0.5547175 16.34675898 -1.3125 24.53515625 C-1.44737269 26.0244179 -1.58188827 27.51371193 -1.71606445 29.0030365 C-2.067615 32.89456575 -2.42396833 36.78564028 -2.78137207 40.67663574 C-3.14624953 44.65850621 -3.5065162 48.64079362 -3.8671875 52.62304688 C-4.57364911 60.41577655 -5.28519229 68.20803098 -6 76 C-9.94194615 74.16975414 -12.80993638 71.5924761 -15.9375 68.625 C-21.23229587 63.52337378 -21.23229587 63.52337378 -27 59 C-30.70276569 60.23425523 -31.5035057 61.62245549 -33.875 64.6875 C-37.56735722 69.32399416 -41.431057 73.69174217 -45.5 78 C-49.32269949 82.05811983 -53.01443629 86.14304537 -56.5 90.5 C-61.06041926 96.19631705 -66.01734663 101.47319066 -71.00390625 106.79296875 C-75.38116714 111.4639332 -79.5514289 116.29747541 -83.69921875 121.171875 C-84.71581756 122.36486315 -85.73275588 123.55756205 -86.75 124.75 C-87.522229 125.65552612 -87.522229 125.65552612 -88.31005859 126.5793457 C-91.6910241 130.52485773 -95.15111306 134.38110261 -98.6875 138.1875 C-102.83561772 142.65413654 -106.75152059 147.26212189 -110.5390625 152.0390625 C-111.35117188 153.01617187 -112.16328125 153.99328125 -113 155 C-113.46623779 155.83805176 -113.93247559 156.67610352 -114.4128418 157.53955078 C-117.08764324 161.57983532 -119.5190299 164.46983522 -124.44006348 165.52142334 C-131.80368234 166.26895054 -139.18120127 165.9079311 -146.5625 165.625 C-148.83388671 165.57479466 -151.1053797 165.52917513 -153.37695312 165.48828125 C-158.92030132 165.3785355 -164.45965523 165.21162289 -170 165 C-169.06844561 163.73931558 -168.13424522 162.48058617 -167.19897461 161.22265625 C-166.4190641 160.1709021 -166.4190641 160.1709021 -165.62339783 159.09790039 C-163.13158255 155.87775302 -160.36826184 152.94579987 -157.5625 150 C-156.41192581 148.7768262 -155.26217836 147.55287417 -154.11328125 146.328125 C-153.5713916 145.75126953 -153.02950195 145.17441406 -152.47119141 144.58007812 C-150.14321938 142.07980681 -147.90391354 139.5075038 -145.671875 136.921875 C-143.64241927 134.58894926 -141.572353 132.29488755 -139.5 130 C-136.81016569 127.01937279 -134.13689636 124.02754767 -131.5 121 C-128.10746907 117.10487189 -124.64805799 113.27217237 -121.1875 109.4375 C-119.27445851 107.30582519 -117.38112388 105.1598089 -115.5 103 C-112.10746907 99.10487189 -108.64805799 95.27217237 -105.1875 91.4375 C-103.27445851 89.30582519 -101.38112388 87.1598089 -99.5 85 C-96.10746907 81.10487189 -92.64805799 77.27217237 -89.1875 73.4375 C-87.27445851 71.30582519 -85.38112388 69.1598089 -83.5 67 C-80.10746907 63.10487189 -76.64805799 59.27217237 -73.1875 55.4375 C-70.71175479 52.67881248 -68.27417113 49.88893061 -65.83984375 47.09375 C-62.26630337 43.02704588 -58.6297047 39.01654397 -55 35 C-59.16075889 30.77460796 -63.4686901 26.72370997 -67.8125 22.6875 C-68.50537109 22.04232422 -69.19824219 21.39714844 -69.91210938 20.73242188 C-71.60731349 19.15412839 -73.30329254 17.57667698 -75 16 C-72.31904668 13.31904668 -70.21467407 13.23764684 -66.50244141 12.48779297 C-65.83557816 12.35095093 -65.1687149 12.21410889 -64.48164368 12.07312012 C-62.2730667 11.62197212 -60.06244101 11.18190633 -57.8515625 10.7421875 C-56.31689378 10.43171883 -54.78233906 10.12068618 -53.24789429 9.80911255 C-50.02915408 9.15721708 -46.80943268 8.51049188 -43.58886719 7.86767578 C-39.46240249 7.04386627 -35.33806247 6.20995962 -31.21434975 5.37249565 C-28.04426303 4.72939781 -24.87336983 4.09035679 -21.7021904 3.45267105 C-20.18137036 3.14660747 -18.66074124 2.8395936 -17.14030838 2.5316124 C-15.0130842 2.10162711 -12.8848965 1.67679024 -10.75634766 1.25341797 C-9.54548492 1.01074188 -8.33462219 0.7680658 -7.08706665 0.51803589 C-4 0 -4 0 0 0 Z " fill="#0F7663" transform="translate(311,184)"/>
<path d="M0 0 C11.22 0 22.44 0 34 0 C34 31.68 34 63.36 34 96 C42.25 96 50.5 96 59 96 C54.50350263 102.74474606 54.50350263 102.74474606 52.5546875 105.19140625 C52.11640625 105.74505859 51.678125 106.29871094 51.2265625 106.86914062 C50.55753906 107.70735352 50.55753906 107.70735352 49.875 108.5625 C44.50438493 115.3167034 39.26317546 122.1578719 34 129 C22.78 129 11.56 129 0 129 C0 86.43 0 43.86 0 0 Z " fill="#0F7663" transform="translate(100,220)"/>
<path d="M0 0 C8.971875 -0.0928125 8.971875 -0.0928125 18.125 -0.1875 C20.00203613 -0.21481201 21.87907227 -0.24212402 23.81298828 -0.27026367 C25.31542316 -0.27903275 26.81786521 -0.28667569 28.3203125 -0.29296875 C29.47261353 -0.3159906 29.47261353 -0.3159906 30.64819336 -0.33947754 C37.02301382 -0.34255716 41.05705371 1.18658347 45.8125 5.625 C48.70998904 9.40392584 49.27751881 13.31482954 49 18 C47.4505038 23.25107046 45.52681628 25.94134035 41 29 C41.9075 29.53625 42.815 30.0725 43.75 30.625 C47.6379393 33.25372492 50.2455855 36.29622249 51.53515625 40.91796875 C52.52474368 46.7986205 51.48483109 51.54431781 48.375 56.6875 C43.42480021 61.50743137 38.12620248 63.45693888 31.26855469 63.45263672 C30.48899414 63.43217285 29.70943359 63.41170898 28.90625 63.390625 C28.16729492 63.38659668 27.42833984 63.38256836 26.66699219 63.37841797 C23.94440364 63.357716 21.22217306 63.30187277 18.5 63.25 C9.3425 63.12625 9.3425 63.12625 0 63 C0 42.21 0 21.42 0 0 Z M17 12 C17 16.29 17 20.58 17 25 C23.49886055 25.61721358 23.49886055 25.61721358 29.125 22.8125 C31.24268134 20.19934538 31.24268134 20.19934538 31 17.375 C29.92457408 14.82086345 29.17916834 13.68631874 27 12 C24.48710325 11.63786432 24.48710325 11.63786432 21.8125 11.8125 C20.224375 11.874375 18.63625 11.93625 17 12 Z M17 35 C17 40.28 17 45.56 17 51 C25.07283244 51.58171243 25.07283244 51.58171243 32 48 C34.31537595 45.18291805 34.31537595 45.18291805 33.8125 42 C32.98173446 38.93255801 32.55733651 37.79960718 30 36 C27.02610193 35.06222653 24.35762693 34.8917996 21.25 34.9375 C19.8475 34.958125 18.445 34.97875 17 35 Z " fill="#107764" transform="translate(524,273)"/>
<path d="M0 0 C5.28 0 10.56 0 16 0 C16.33 10.56 16.66 21.12 17 32 C18.423125 29.69 19.84625 27.38 21.3125 25 C23.79766689 21.44283151 26.08651171 18.53182912 30.38574219 17.33691406 C35.97505068 16.7582712 41.4461874 17.27483898 47 18 C42.21438076 24.51367235 37.15149925 30.77240979 32 37 C33.35334642 40.7123678 35.03841869 43.78265887 37.2578125 47.046875 C37.88300781 47.97371094 38.50820313 48.90054688 39.15234375 49.85546875 C39.80332031 50.81066406 40.45429687 51.76585937 41.125 52.75 C42.42124399 54.6601208 43.71562418 56.57150823 45.0078125 58.484375 C45.58160645 59.32709961 46.15540039 60.16982422 46.74658203 61.03808594 C48 63 48 63 48 64 C31.14086451 65.68251453 31.14086451 65.68251453 26.0625 61.69140625 C24.08614481 58.87285425 22.51683426 56.08537878 21 53 C20.03042064 51.64438441 19.04115841 50.30144802 18 49 C16.58365167 51.83269666 16.6536995 54.47466438 16.4375 57.625 C16.293125 59.72875 16.14875 61.8325 16 64 C10.72 64 5.44 64 0 64 C0 42.88 0 21.76 0 0 Z " fill="#107764" transform="translate(742,272)"/>
<path d="M0 0 C5.28 0 10.56 0 16 0 C16.33 10.56 16.66 21.12 17 32 C18.423125 29.69 19.84625 27.38 21.3125 25 C23.79766689 21.44283151 26.08651171 18.53182912 30.38574219 17.33691406 C35.97505068 16.7582712 41.4461874 17.27483898 47 18 C42.21438076 24.51367235 37.15149925 30.77240979 32 37 C33.35334642 40.7123678 35.03841869 43.78265887 37.2578125 47.046875 C37.88300781 47.97371094 38.50820313 48.90054688 39.15234375 49.85546875 C39.80332031 50.81066406 40.45429687 51.76585937 41.125 52.75 C42.42124399 54.6601208 43.71562418 56.57150823 45.0078125 58.484375 C45.58160645 59.32709961 46.15540039 60.16982422 46.74658203 61.03808594 C48 63 48 63 48 64 C31.14086451 65.68251453 31.14086451 65.68251453 26.0625 61.69140625 C24.08614481 58.87285425 22.51683426 56.08537878 21 53 C20.03042064 51.64438441 19.04115841 50.30144802 18 49 C16.58365167 51.83269666 16.6536995 54.47466438 16.4375 57.625 C16.293125 59.72875 16.14875 61.8325 16 64 C10.72 64 5.44 64 0 64 C0 42.88 0 21.76 0 0 Z " fill="#107764" transform="translate(472,272)"/>
<path d="M0 0 C5.28 0 10.56 0 16 0 C16.04898438 1.97484375 16.09796875 3.9496875 16.1484375 5.984375 C16.22346811 8.57293092 16.29901581 11.16147189 16.375 13.75 C16.4059375 15.05195313 16.436875 16.35390625 16.46875 17.6953125 C16.50742187 18.94570313 16.54609375 20.19609375 16.5859375 21.484375 C16.63306885 23.21252441 16.63306885 23.21252441 16.68115234 24.97558594 C16.9863337 27.87036897 17.4047943 29.59184608 19 32 C21.49382541 33.16378519 22.58019256 33.14393398 25.1875 32.25 C27.31782938 31.04890402 27.31782938 31.04890402 28 28 C28.15070797 25.86338742 28.2485966 23.72287876 28.31640625 21.58203125 C28.35830078 20.32841797 28.40019531 19.07480469 28.44335938 17.78320312 C28.48267578 16.47287109 28.52199219 15.16253906 28.5625 13.8125 C28.60570992 12.47720022 28.649325 11.14191348 28.69335938 9.80664062 C28.79956434 6.53788766 28.90029785 3.26895777 29 0 C34.28 0 39.56 0 45 0 C45 15.18 45 30.36 45 46 C40.05 46 35.1 46 30 46 C29.34 44.68 28.68 43.36 28 42 C26.824375 42.9590625 26.824375 42.9590625 25.625 43.9375 C20.45931968 47.99624882 15.39344091 47.58502074 9 47 C4.27015681 44.92550737 2.52792153 42.74235394 0.60214233 38.00265503 C-0.45217819 34.49610819 -0.36786457 31.07559503 -0.29296875 27.44140625 C-0.28872391 26.65225327 -0.28447906 25.86310028 -0.28010559 25.05003357 C-0.26344452 22.55382739 -0.22581779 20.05845808 -0.1875 17.5625 C-0.17243683 15.86003778 -0.15875129 14.15756279 -0.14648438 12.45507812 C-0.11614633 8.30281134 -0.0574055 4.15233144 0 0 Z " fill="#107764" transform="translate(633,290)"/>
<path d="M0 0 C5.46372449 2.88898234 9.17847889 7.31072128 11.4296875 13.1328125 C13.18221322 20.8708876 13.00738648 29.3799769 9.26953125 36.47265625 C5.50852713 41.84394366 1.25037545 44.67360308 -5.0625 46.375 C-13.0434341 47.17124169 -20.44582033 47.32144985 -27.0625 42.375 C-32.52961617 37.63683265 -35.72786217 32.87973995 -36.265625 25.640625 C-36.3882286 17.75312688 -36.01235117 11.88293112 -30.75 5.625 C-21.8038664 -1.86478627 -11.26688515 -4.57895332 0 0 Z M-15.25 10.75 C-18.20528639 13.39956711 -19.24107769 16.5439402 -20.0625 20.375 C-20.26248921 24.56708156 -19.47917036 27.69970666 -17.25 31.3125 C-14.56855582 33.89944309 -14.56855582 33.89944309 -11.0625 34.375 C-8.02934109 33.07507475 -6.45580149 32.03050249 -4.75 29.1875 C-3.49056696 24.03527392 -3.53139985 19.96830046 -5.1875 15 C-6.90318837 12.17218343 -6.90318837 12.17218343 -10 10.875 C-12.91782929 10.22801324 -12.91782929 10.22801324 -15.25 10.75 Z " fill="#107764" transform="translate(615.0625,290.625)"/>
<path d="M0 0 C5.10991328 2.33083764 6.93468151 4.86826495 9 10 C9.3823885 12.90272354 9.35112704 15.75611272 9.29296875 18.6796875 C9.28872391 19.49245148 9.28447906 20.30521545 9.28010559 21.14260864 C9.26340804 23.72041959 9.22577362 26.2974282 9.1875 28.875 C9.17244158 30.63019699 9.1587552 32.38540631 9.14648438 34.140625 C9.11609441 38.42763578 9.05735925 42.71292739 9 47 C3.72 47 -1.56 47 -7 47 C-7.06058594 44.94136719 -7.12117188 42.88273437 -7.18359375 40.76171875 C-7.24617658 38.76602171 -7.30879126 36.77032553 -7.37231445 34.7746582 C-7.41560218 33.38864017 -7.45728164 32.00257094 -7.49731445 30.61645508 C-7.55516584 28.62308202 -7.61929776 26.62989435 -7.68359375 24.63671875 C-7.72025146 23.43748779 -7.75690918 22.23825684 -7.79467773 21.00268555 C-7.87733025 17.95005651 -7.87733025 17.95005651 -9 15 C-11.97 14.505 -11.97 14.505 -15 14 C-17.79339715 17.9705913 -18.40157657 20.78905387 -18.51171875 25.61328125 C-18.54716797 26.86044922 -18.58261719 28.10761719 -18.61914062 29.39257812 C-18.64169922 30.68615234 -18.66425781 31.97972656 -18.6875 33.3125 C-18.72166016 34.62541016 -18.75582031 35.93832031 -18.79101562 37.29101562 C-18.87338729 40.52704519 -18.93837279 43.76350892 -19 47 C-24.28 47 -29.56 47 -35 47 C-35 31.82 -35 16.64 -35 1 C-30.05 1 -25.1 1 -20 1 C-19.34 1.99 -18.68 2.98 -18 4 C-17.2575 3.34 -16.515 2.68 -15.75 2 C-10.98466264 -1.17689157 -5.4831257 -0.73710057 0 0 Z " fill="#107764" transform="translate(456,289)"/>
<path d="M0 0 C5.61 0 11.22 0 17 0 C17 16.17 17 32.34 17 49 C25.25 49 33.5 49 42 49 C42 53.62 42 58.24 42 63 C28.14 63 14.28 63 0 63 C0 42.21 0 21.42 0 0 Z " fill="#107764" transform="translate(349,273)"/>
<path d="M0 0 C12.21 0 24.42 0 37 0 C37 45.21 37 90.42 37 137 C57.975625 136.896875 78.95125 136.79375 100.5625 136.6875 C107.18127197 136.66260498 113.80004395 136.63770996 120.61938477 136.61206055 C126.56158993 136.57548857 126.56158993 136.57548857 132.50376892 136.5349884 C135.14691833 136.51885648 137.78968778 136.5074518 140.43284607 136.50288391 C144.44054358 136.49563318 148.44774944 136.46480283 152.45532227 136.43237305 C154.21626771 136.43451199 154.21626771 136.43451199 156.01278782 136.43669415 C164.50130467 136.33861875 170.68861604 135.13606774 177 129 C180.04141755 124.64063485 180.37757951 121.38591986 179.56640625 116.296875 C177.72706701 108.83803724 173.62668985 104.05769874 168 99 C169.41738489 95.74792908 171.12526412 93.68638933 173.6875 91.25 C177.06267095 87.97248318 180.16142471 84.5769626 183.1640625 80.95703125 C185.58789135 78.37333284 188.24842163 76.23132196 191 74 C203.48332472 83.90887051 211.4318273 92.96000107 215 109 C216.64394772 127.50064756 212.47563398 141.76505235 200.6875 156.25 C191.46556786 166.29348512 178.55847103 172.89425989 164.98535156 173.54272461 C164.11903233 173.58454581 163.25271309 173.62636702 162.36014175 173.66945553 C148.47846753 174.26521288 134.57495741 174.23225232 120.68275738 174.30332303 C116.53215775 174.32550225 112.38159098 174.35273152 108.23101807 174.37937927 C100.40477351 174.42888188 92.5785103 174.47397429 84.75222993 174.51740164 C75.82809311 174.56714167 66.90398933 174.62192092 57.97988462 174.67708123 C39.65328722 174.79024808 21.32665848 174.8972239 3 175 C1.79286471 157.54338474 1.6962845 140.06239347 1.49474788 122.57257676 C1.44413019 118.25112408 1.38911944 113.92972717 1.33460999 109.60832214 C1.23243049 101.45623455 1.13410058 93.30410545 1.03721577 85.1519534 C0.92656687 75.85781862 0.81153196 66.56373967 0.69616115 57.2696625 C0.45928861 38.17983146 0.22839701 19.08993445 0 0 Z M2 2 C1.88021339 27.65679416 2.02858219 53.30331862 2.4375 78.95703125 C2.44845451 79.64426946 2.45940903 80.33150767 2.4706955 81.03957129 C2.60583129 89.47957854 2.7471459 97.91947768 2.89076424 106.35934436 C3.01469862 113.65152116 3.13422402 120.9437686 3.25351524 128.23602259 C3.49770075 143.15742722 3.74699297 158.07874212 4 173 C28.35315721 173.06789356 52.70589562 173.06642293 77.05908203 173.01245117 C81.04313058 173.0037072 85.02717597 172.99682377 89.01123047 172.99145508 C99.97754822 172.97574071 110.94343821 172.94202317 121.90952206 172.86630154 C126.69398477 172.83350656 131.4781447 172.80871047 136.26272583 172.80471802 C140.78958725 172.80047904 145.3157039 172.77230433 149.84233093 172.72663116 C151.49918801 172.71382876 153.15613398 172.70920181 154.81303406 172.71382904 C172.34151134 172.75182996 185.51349007 167.9768592 198.625 155.9375 C208.49500787 145.73440128 213.88865749 132.83271218 214.1875 118.6875 C213.96564884 106.09318043 210.07423561 92.85795102 200.9453125 83.71484375 C196.10139897 78.9782868 196.10139897 78.9782868 189.97265625 76.90234375 C186.96245743 78.57732567 184.91069169 81.0518364 182.6875 83.625 C181.71754963 84.7199951 180.74619651 85.81374925 179.7734375 86.90625 C179.06719238 87.70289063 179.06719238 87.70289063 178.34667969 88.515625 C176.06451661 91.0311347 173.61628527 93.36827475 171.14453125 95.6953125 C169.78017996 96.96132019 169.78017996 96.96132019 170 99 C171.13501953 99.87785156 171.13501953 99.87785156 172.29296875 100.7734375 C177.38581137 104.96235567 180.3222692 111.35146428 181.51953125 117.796875 C181.7454906 123.32032566 180.74175144 126.75260647 177 131 C172.18339458 135.44609731 167.92668849 137.24114165 161.38749695 137.2784729 C160.27226748 137.28962442 159.15703802 137.30077595 158.00801373 137.3122654 C156.78938043 137.31443754 155.57074713 137.31660969 154.31518555 137.31884766 C153.00617436 137.32900091 151.69716318 137.33915417 150.34848499 137.3496151 C146.81418594 137.37683225 143.2799284 137.39225176 139.74555206 137.40519714 C136.42655213 137.41914994 133.10763865 137.44378308 129.78869629 137.4675293 C120.08836139 137.5307292 110.38792115 137.57682383 100.6875 137.625 C68.1721875 137.810625 68.1721875 137.810625 35 138 C35 93.12 35 48.24 35 2 C24.11 2 13.22 2 2 2 Z " fill="#024E3A" transform="translate(57,220)"/>
<path d="M0 0 C5.28 0 10.56 0 16 0 C16 3.96 16 7.92 16 12 C18.64 12 21.28 12 24 12 C24 15.96 24 19.92 24 24 C21.36 24 18.72 24 16 24 C16.13857841 27.12536637 16.28709569 30.25018217 16.4375 33.375 C16.47681641 34.26445312 16.51613281 35.15390625 16.55664062 36.0703125 C16.59853516 36.92109375 16.64042969 37.771875 16.68359375 38.6484375 C16.72025146 39.43395996 16.75690918 40.21948242 16.79467773 41.02880859 C16.890891 43.07523496 16.890891 43.07523496 18 45 C20.32156597 45.40729228 22.6568787 45.74438677 25 46 C25.02686553 47.97909398 25.04633375 49.95828971 25.0625 51.9375 C25.07410156 53.03964844 25.08570313 54.14179688 25.09765625 55.27734375 C25 58 25 58 24 59 C21.58646168 59.18153617 19.22875181 59.27814571 16.8125 59.3125 C15.49894531 59.34988281 14.18539062 59.38726562 12.83203125 59.42578125 C8.36122749 58.92902528 6.37392881 57.94425336 3 55 C-1.24146966 49.43362682 -0.3342447 42.79247734 -0.1875 36.125 C-0.17396484 34.9596875 -0.16042969 33.794375 -0.14648438 32.59375 C-0.11125821 29.72868882 -0.06199715 26.86458623 0 24 C-1.98 24 -3.96 24 -6 24 C-6 20.04 -6 16.08 -6 12 C-4.02 12 -2.04 12 0 12 C0 8.04 0 4.08 0 0 Z " fill="#107764" transform="translate(687,278)"/>
<path d="M0 0 C0.19138601 8.2335855 -0.5547175 16.34675898 -1.3125 24.53515625 C-1.44737269 26.0244179 -1.58188827 27.51371193 -1.71606445 29.0030365 C-2.067615 32.89456575 -2.42396833 36.78564028 -2.78137207 40.67663574 C-3.14624953 44.65850621 -3.5065162 48.64079362 -3.8671875 52.62304688 C-4.57364911 60.41577655 -5.28519229 68.20803098 -6 76 C-9.94194615 74.16975414 -12.80993638 71.5924761 -15.9375 68.625 C-21.23229587 63.52337378 -21.23229587 63.52337378 -27 59 C-30.70276569 60.23425523 -31.5035057 61.62245549 -33.875 64.6875 C-37.56735722 69.32399416 -41.431057 73.69174217 -45.5 78 C-49.32269949 82.05811983 -53.01443629 86.14304537 -56.5 90.5 C-61.06041926 96.19631705 -66.01734663 101.47319066 -71.00390625 106.79296875 C-75.38116714 111.4639332 -79.5514289 116.29747541 -83.69921875 121.171875 C-84.71581756 122.36486315 -85.73275588 123.55756205 -86.75 124.75 C-87.522229 125.65552612 -87.522229 125.65552612 -88.31005859 126.5793457 C-91.6910241 130.52485773 -95.15111306 134.38110261 -98.6875 138.1875 C-102.83561772 142.65413654 -106.75152059 147.26212189 -110.5390625 152.0390625 C-111.35117188 153.01617187 -112.16328125 153.99328125 -113 155 C-113.46623779 155.83805176 -113.93247559 156.67610352 -114.4128418 157.53955078 C-117.08764324 161.57983532 -119.5190299 164.46983522 -124.44006348 165.52142334 C-131.80368234 166.26895054 -139.18120127 165.9079311 -146.5625 165.625 C-148.83388671 165.57479466 -151.1053797 165.52917513 -153.37695312 165.48828125 C-158.92030132 165.3785355 -164.45965523 165.21162289 -170 165 C-169.06844561 163.73931558 -168.13424522 162.48058617 -167.19897461 161.22265625 C-166.4190641 160.1709021 -166.4190641 160.1709021 -165.62339783 159.09790039 C-163.13158255 155.87775302 -160.36826184 152.94579987 -157.5625 150 C-156.41192581 148.7768262 -155.26217836 147.55287417 -154.11328125 146.328125 C-153.5713916 145.75126953 -153.02950195 145.17441406 -152.47119141 144.58007812 C-150.14321938 142.07980681 -147.90391354 139.5075038 -145.671875 136.921875 C-143.64241927 134.58894926 -141.572353 132.29488755 -139.5 130 C-136.81016569 127.01937279 -134.13689636 124.02754767 -131.5 121 C-128.10746907 117.10487189 -124.64805799 113.27217237 -121.1875 109.4375 C-119.27445851 107.30582519 -117.38112388 105.1598089 -115.5 103 C-112.10746907 99.10487189 -108.64805799 95.27217237 -105.1875 91.4375 C-103.27445851 89.30582519 -101.38112388 87.1598089 -99.5 85 C-96.10746907 81.10487189 -92.64805799 77.27217237 -89.1875 73.4375 C-87.27445851 71.30582519 -85.38112388 69.1598089 -83.5 67 C-80.10746907 63.10487189 -76.64805799 59.27217237 -73.1875 55.4375 C-70.71175479 52.67881248 -68.27417113 49.88893061 -65.83984375 47.09375 C-62.26630337 43.02704588 -58.6297047 39.01654397 -55 35 C-59.16075889 30.77460796 -63.4686901 26.72370997 -67.8125 22.6875 C-68.50537109 22.04232422 -69.19824219 21.39714844 -69.91210938 20.73242188 C-71.60731349 19.15412839 -73.30329254 17.57667698 -75 16 C-72.31904668 13.31904668 -70.21467407 13.23764684 -66.50244141 12.48779297 C-65.83557816 12.35095093 -65.1687149 12.21410889 -64.48164368 12.07312012 C-62.2730667 11.62197212 -60.06244101 11.18190633 -57.8515625 10.7421875 C-56.31689378 10.43171883 -54.78233906 10.12068618 -53.24789429 9.80911255 C-50.02915408 9.15721708 -46.80943268 8.51049188 -43.58886719 7.86767578 C-39.46240249 7.04386627 -35.33806247 6.20995962 -31.21434975 5.37249565 C-28.04426303 4.72939781 -24.87336983 4.09035679 -21.7021904 3.45267105 C-20.18137036 3.14660747 -18.66074124 2.8395936 -17.14030838 2.5316124 C-15.0130842 2.10162711 -12.8848965 1.67679024 -10.75634766 1.25341797 C-9.54548492 1.01074188 -8.33462219 0.7680658 -7.08706665 0.51803589 C-4 0 -4 0 0 0 Z M-12.42578125 3.13671875 C-14.31635254 3.50446411 -14.31635254 3.50446411 -16.24511719 3.87963867 C-17.60096655 4.14864824 -18.95675967 4.41794148 -20.3125 4.6875 C-21.70601506 4.96154597 -23.09957016 5.23538844 -24.49316406 5.5090332 C-28.66388628 6.33053909 -32.83227047 7.16345914 -37 8 C-38.19608887 8.23976562 -39.39217773 8.47953125 -40.62451172 8.7265625 C-43.83439122 9.37365189 -47.04261534 10.02816556 -50.25 10.6875 C-51.64665894 10.97210083 -51.64665894 10.97210083 -53.0715332 11.26245117 C-59.45496422 12.59351368 -65.72697272 14.22183688 -72 16 C-70.85091127 17.14908873 -69.70148955 18.29784563 -68.55078125 19.4453125 C-67.4804957 20.51829398 -66.41571044 21.59678032 -65.35546875 22.6796875 C-61.40911896 26.68839497 -57.31460485 30.38982043 -53 34 C-56.4145986 38.81545957 -59.98502875 43.12265916 -64.22265625 47.23046875 C-66.65539137 49.65251053 -68.8757853 52.23381391 -71.1171875 54.83203125 C-73.2157532 57.24842951 -75.354397 59.62529024 -77.5 62 C-80.18983431 64.98062721 -82.86310364 67.97245233 -85.5 71 C-88.89253093 74.89512811 -92.35194201 78.72782763 -95.8125 82.5625 C-97.72554149 84.69417481 -99.61887612 86.8401911 -101.5 89 C-104.89253093 92.89512811 -108.35194201 96.72782763 -111.8125 100.5625 C-113.72554149 102.69417481 -115.61887612 104.8401911 -117.5 107 C-120.89253093 110.89512811 -124.35194201 114.72782763 -127.8125 118.5625 C-129.72554149 120.69417481 -131.61887612 122.8401911 -133.5 125 C-136.89253093 128.89512811 -140.35194201 132.72782763 -143.8125 136.5625 C-146.29572253 139.32951939 -148.74153814 142.12688693 -151.1796875 144.93359375 C-154.0010068 148.13633604 -156.89626887 151.27194511 -159.7890625 154.41015625 C-161.53243396 156.45230338 -163.09149219 158.47580863 -164.63818359 160.66186523 C-165.08229584 161.28818344 -165.52640808 161.91450165 -165.98397827 162.55979919 C-166.31926544 163.03506546 -166.65455261 163.51033173 -167 164 C-161.02281878 164.19862821 -155.04758097 164.34333176 -149.06787109 164.43945312 C-147.036606 164.47954176 -145.00556972 164.53403054 -142.97509766 164.60351562 C-131.62431113 165.39038079 -131.62431113 165.39038079 -120.98706055 162.36376953 C-118.95270007 160.35423852 -117.48300033 158.43566373 -116 156 C-115.24332031 155.11054688 -114.48664063 154.22109375 -113.70703125 153.3046875 C-113.08183594 152.50289062 -112.45664063 151.70109375 -111.8125 150.875 C-107.14148191 145.05444193 -102.09568395 139.64789136 -96.99609375 134.20703125 C-92.61883286 129.5360668 -88.4485711 124.70252459 -84.30078125 119.828125 C-83.28418244 118.63513685 -82.26724412 117.44243795 -81.25 116.25 C-80.477771 115.34447388 -80.477771 115.34447388 -79.68994141 114.4206543 C-75.86787748 109.96039016 -71.92778734 105.62732886 -67.93017578 101.32470703 C-65.03251776 98.18496883 -62.29653427 94.95833511 -59.625 91.625 C-55.02175038 85.90405488 -50.0392772 80.58634818 -45.01953125 75.234375 C-41.58488596 71.56990609 -38.26422107 67.8167585 -35 64 C-34.4225 63.32839844 -33.845 62.65679687 -33.25 61.96484375 C-31.83063796 60.31220693 -30.41489521 58.65646268 -29 57 C-25.35752143 58.59787975 -22.55600321 60.84792042 -19.5 63.375 C-18.5615625 64.14585937 -17.623125 64.91671875 -16.65625 65.7109375 C-14 68 -14 68 -11.78125 70.2890625 C-10.17124243 72.23090978 -10.17124243 72.23090978 -8 72 C-6.61666054 69.23332109 -6.60792042 66.72352327 -6.33569336 63.63842773 C-6.24769218 62.66016525 -6.24769218 62.66016525 -6.15791321 61.66213989 C-5.96466844 59.50295068 -5.77722249 57.34329929 -5.58984375 55.18359375 C-5.45709369 53.6866609 -5.32399696 52.18975875 -5.19056702 50.69288635 C-4.84007169 46.74967288 -4.49454697 42.80603854 -4.14996338 38.86230469 C-3.79782952 34.84346704 -3.44057853 30.82508448 -3.08398438 26.80664062 C-2.56519802 20.94869967 -2.04755762 15.09065958 -1.53491211 9.23217773 C-1.43133896 8.05018295 -1.32776581 6.86818817 -1.22105408 5.65037537 C-1.05986683 3.82729667 -1.05986683 3.82729667 -1 2 C-4.96526573 1.86574842 -8.53649166 2.37419525 -12.42578125 3.13671875 Z " fill="#014D38" transform="translate(311,184)"/>
<path d="M0 0 C5.28 0 10.56 0 16 0 C16 15.18 16 30.36 16 46 C10.72 46 5.44 46 0 46 C0 30.82 0 15.64 0 0 Z " fill="#107764" transform="translate(719,290)"/>
<path d="M0 0 C5.28 0 10.56 0 16 0 C16 15.18 16 30.36 16 46 C10.72 46 5.44 46 0 46 C0 30.82 0 15.64 0 0 Z " fill="#107764" transform="translate(397,290)"/>
<path d="M0 0 C11.22 0 22.44 0 34 0 C34 31.68 34 63.36 34 96 C42.25 96 50.5 96 59 96 C54.50350263 102.74474606 54.50350263 102.74474606 52.5546875 105.19140625 C52.11640625 105.74505859 51.678125 106.29871094 51.2265625 106.86914062 C50.55753906 107.70735352 50.55753906 107.70735352 49.875 108.5625 C44.50438493 115.3167034 39.26317546 122.1578719 34 129 C22.78 129 11.56 129 0 129 C0 86.43 0 43.86 0 0 Z M1 2 C1 43.58 1 85.16 1 128 C11.23 128 21.46 128 32 128 C36.3241805 123.05807943 40.543847 118.17186355 44.5625 113 C45.26693237 112.09761597 45.26693237 112.09761597 45.9855957 111.17700195 C52.30675649 104.43782482 52.30675649 104.43782482 56 97 C48.08 97 40.16 97 32 97 C32 65.65 32 34.3 32 2 C21.77 2 11.54 2 1 2 Z " fill="#03513C" transform="translate(100,220)"/>
<path d="M0 0 C3.34238038 2.14255152 3.89167954 3.60282498 4.9375 7.4375 C5.00698608 11.39820668 4.43366566 12.93538398 2 16 C-1.46822926 17.73411463 -5.2079795 17.45800603 -9 17 C-11.5625 15.5625 -11.5625 15.5625 -13 13 C-13.59785451 9.86701245 -13.64850375 7.12773935 -13 4 C-9.31821488 -0.71728718 -5.57290974 -0.70767108 0 0 Z " fill="#107764" transform="translate(731,268)"/>
<path d="M0 0 C3.34238038 2.14255152 3.89167954 3.60282498 4.9375 7.4375 C5.00698608 11.39820668 4.43366566 12.93538398 2 16 C-1.46822926 17.73411463 -5.2079795 17.45800603 -9 17 C-11.5625 15.5625 -11.5625 15.5625 -13 13 C-13.59785451 9.86701245 -13.64850375 7.12773935 -13 4 C-9.31821488 -0.71728718 -5.57290974 -0.70767108 0 0 Z " fill="#107764" transform="translate(409,268)"/>
</svg>
