<?xml version="1.0" encoding="UTF-8"?>
<svg version="1.1" xmlns="http://www.w3.org/2000/svg" width="842" height="596">
<path d="M0 0 C15.84 0 31.68 0 48 0 C48 59.07 48 118.14 48 179 C88.9921875 178.87625 88.9921875 178.87625 130.8125 178.75 C143.74014526 178.72631348 143.74014526 178.72631348 156.92895508 178.70214844 C164.67667126 178.66891506 164.67667126 178.66891506 172.42436218 178.63043213 C175.86642328 178.61347569 179.30831009 178.60756624 182.75041199 178.60845947 C187.15059297 178.60923424 191.55031287 178.59081523 195.95037401 178.55891085 C197.55921892 178.5504378 199.16811607 178.54852299 200.77697337 178.55417585 C211.49971871 178.58706109 221.7388723 178.24382335 230 170.625 C234.36743552 165.68152382 236.68236432 161.21527093 236.40234375 154.55078125 C234.80725227 144.43821096 229.33461638 136.87350101 222 130 C221.34 129.67 220.68 129.34 220 129 C221.39848491 125.86968554 223.05620549 123.65139968 225.4140625 121.171875 C226.09339844 120.45386719 226.77273438 119.73585938 227.47265625 118.99609375 C228.53806641 117.88427734 228.53806641 117.88427734 229.625 116.75 C230.31207031 116.02425781 230.99914062 115.29851562 231.70703125 114.55078125 C235.84339233 110.19712541 240.05297945 105.9314829 244.34912109 101.73535156 C246.19275578 99.89676769 246.19275578 99.89676769 248 97 C252.55451016 98.47576307 255.85884562 101.0451001 259.4375 104.125 C260.01443604 104.6214502 260.59137207 105.11790039 261.18579102 105.62939453 C272.95925175 115.97106077 280.40871082 131.28702663 281.87109375 146.96875 C281.93490234 147.97421875 281.93490234 147.97421875 282 149 C282.05285156 149.7115625 282.10570312 150.423125 282.16015625 151.15625 C282.9053385 170.59578706 275.2362585 188.58303693 262.75 203.1875 C252.04435705 214.57686468 235.05044636 225.70684812 218.92781067 226.30992126 C216.9192402 226.3479243 214.91045156 226.37530105 212.90161133 226.39428711 C211.22822095 226.42106757 211.22822095 226.42106757 209.5210247 226.44838905 C205.7705961 226.50532591 202.02015512 226.54786094 198.26953125 226.58984375 C196.25873804 226.61719018 194.24794487 226.64454746 192.23716217 226.67265624 C157.42401233 227.15614368 122.60631966 227.32579272 87.79061329 227.51741064 C78.61899259 227.56801034 69.44739563 227.62245066 60.2757982 227.67708123 C41.51722095 227.78873723 22.75862111 227.89598548 4 228 C3.26132622 221.49368984 2.83586345 215.06753033 2.76585388 208.52133179 C2.7527488 207.62257312 2.73964372 206.72381446 2.72614151 205.79782069 C2.68370176 202.81626359 2.64738458 199.83466501 2.61108398 196.85302734 C2.58175083 194.7037913 2.55203702 192.55456042 2.52197266 190.40533447 C2.4417274 184.59210926 2.3667875 178.77882648 2.29281878 172.96551847 C2.21450704 166.88229483 2.13129006 160.79913831 2.04859924 154.7159729 C1.89288437 143.20616076 1.74156425 131.69629524 1.59183317 120.18640387 C1.42110228 107.07875743 1.24545666 93.97117827 1.06940353 80.8636024 C0.70747712 53.90913855 0.35235409 26.95459079 0 0 Z " fill="#0F7663" transform="translate(265,122)"/>
<path d="M0 0 C-4.90086353 58.10236684 -4.90086353 58.10236684 -6.56674194 77.206604 C-6.6878597 78.5984195 -6.80817439 79.99030514 -6.92764282 81.38226318 C-7.0900635 83.27197034 -7.25587216 85.1613854 -7.421875 87.05078125 C-7.51049805 88.06825439 -7.59912109 89.08572754 -7.69042969 90.1340332 C-8.0124116 93.11490521 -8.47897061 96.04795717 -9 99 C-13.33960363 96.25244031 -17.00234334 93.29508062 -20.75 89.75 C-25.9530117 84.88099867 -31.35717966 80.35695642 -37 76 C-42.9392812 81.77680846 -48.35666022 87.89311349 -53.72265625 94.19921875 C-54.73144547 95.38308982 -55.74057066 96.56667468 -56.75 97.75 C-57.26433594 98.35312012 -57.77867187 98.95624023 -58.30859375 99.57763672 C-62.13114824 104.03847222 -66.07169996 108.37211931 -70.06982422 112.67529297 C-72.96748224 115.81503117 -75.70346573 119.04166489 -78.375 122.375 C-82.98571639 128.10522487 -87.97756638 133.43085078 -93.00390625 138.79296875 C-97.38116714 143.4639332 -101.5514289 148.29747541 -105.69921875 153.171875 C-106.71581756 154.36486315 -107.73275588 155.55756205 -108.75 156.75 C-109.26481934 157.35368408 -109.77963867 157.95736816 -110.31005859 158.5793457 C-114.13212252 163.03960984 -118.07221266 167.37267114 -122.06982422 171.67529297 C-124.96748224 174.81503117 -127.70346573 178.04166489 -130.375 181.375 C-134.97824962 187.09594512 -139.9607228 192.41365182 -144.98046875 197.765625 C-150.98111758 203.84853166 -150.98111758 203.84853166 -155.98490906 210.69680786 C-158.21228388 214.05471052 -159.87826531 215.76072314 -163.89775085 216.61811829 C-167.59346704 216.81099784 -171.23026483 216.78614348 -174.9296875 216.68359375 C-176.28872112 216.67052328 -177.64778794 216.66056594 -179.00686646 216.65357971 C-182.56860863 216.62696545 -186.1283239 216.55830925 -189.68927002 216.48065186 C-193.3290261 216.40879384 -196.96911269 216.37702068 -200.609375 216.34179688 C-207.7404081 216.26692523 -214.87007111 216.14759788 -222 216 C-220.19973587 212.13868341 -217.71905467 209.32024934 -214.8125 206.25 C-213.81051284 205.17511738 -212.80920995 204.09959648 -211.80859375 203.0234375 C-211.32374512 202.50362305 -210.83889648 201.98380859 -210.33935547 201.44824219 C-208.08503483 199.01065013 -205.91722515 196.50024527 -203.7421875 193.9921875 C-201.68499601 191.63979365 -199.59403085 189.31965034 -197.5 187 C-194.81016569 184.01937279 -192.13689636 181.02754767 -189.5 178 C-186.10746907 174.10487189 -182.64805799 170.27217237 -179.1875 166.4375 C-177.27445851 164.30582519 -175.38112388 162.1598089 -173.5 160 C-170.10746907 156.10487189 -166.64805799 152.27217237 -163.1875 148.4375 C-161.27445851 146.30582519 -159.38112388 144.1598089 -157.5 142 C-154.10746907 138.10487189 -150.64805799 134.27217237 -147.1875 130.4375 C-145.27445851 128.30582519 -143.38112388 126.1598089 -141.5 124 C-138.10746907 120.10487189 -134.64805799 116.27217237 -131.1875 112.4375 C-129.27445851 110.30582519 -127.38112388 108.1598089 -125.5 106 C-122.10746907 102.10487189 -118.64805799 98.27217237 -115.1875 94.4375 C-113.27445851 92.30582519 -111.38112388 90.1598089 -109.5 88 C-106.10746907 84.10487189 -102.64805799 80.27217237 -99.1875 76.4375 C-97.27445851 74.30582519 -95.38112388 72.1598089 -93.5 70 C-90.86310364 66.97245233 -88.18983431 63.98062721 -85.5 61 C-82.67455334 57.86544464 -79.85495597 54.72650936 -77.0625 51.5625 C-76.51722656 50.94503906 -75.97195313 50.32757813 -75.41015625 49.69140625 C-73.81877961 47.84382494 -73.81877961 47.84382494 -72 45 C-77.63273883 39.20884039 -83.59476958 33.91320142 -89.73046875 28.6640625 C-90.64441406 27.86742188 -91.55835938 27.07078125 -92.5 26.25 C-93.3559375 25.51265625 -94.211875 24.7753125 -95.09375 24.015625 C-97 22 -97 22 -97 19 C-84.94433401 16.51809319 -72.88780954 14.04040492 -60.83016586 11.56812286 C-55.2315619 10.42005447 -49.63326593 9.27052616 -44.03564453 8.11767578 C-38.63527482 7.00550581 -33.23413483 5.89715205 -27.83243561 4.79145813 C-25.77005269 4.36859926 -23.70795274 3.9443579 -21.64614105 3.51872253 C-18.76189759 2.92355064 -15.87669406 2.33326857 -12.99121094 1.74414062 C-12.13597336 1.56647659 -11.28073578 1.38881256 -10.39958191 1.20576477 C-9.61156693 1.04589584 -8.82355194 0.88602692 -8.01165771 0.72131348 C-7.32953091 0.58120094 -6.6474041 0.44108841 -5.94460678 0.29673004 C-4 0 -4 0 0 0 Z " fill="#0F7663" transform="translate(598,74)"/>
<path d="M0 0 C14.52 0 29.04 0 44 0 C44 41.25 44 82.5 44 125 C54.89 125 65.78 125 77 125 C72.93511221 131.09733169 68.94021363 136.69798495 64.25 142.25 C57.24051393 150.64965894 50.56416033 159.24778622 44 168 C29.48 168 14.96 168 0 168 C0 112.56 0 57.12 0 0 Z " fill="#0F7663" transform="translate(321,122)"/>
<path d="M0 0 C11.6015625 -0.12375 11.6015625 -0.12375 23.4375 -0.25 C27.0735022 -0.30462402 27.0735022 -0.30462402 30.78295898 -0.36035156 C32.72899493 -0.37204659 34.67504074 -0.38223648 36.62109375 -0.390625 C37.6114563 -0.41108887 38.60181885 -0.43155273 39.62219238 -0.45263672 C47.05050183 -0.45632551 53.60148205 0.79234084 59.15625 6.03515625 C59.5996875 6.70417969 60.043125 7.37320312 60.5 8.0625 C60.9640625 8.73410156 61.428125 9.40570313 61.90625 10.09765625 C64.62864457 14.83267824 64.55870991 19.69619045 64 25 C62.19686974 30.95548165 58.9507014 34.39948989 54 38 C54.59167969 38.31710937 55.18335938 38.63421875 55.79296875 38.9609375 C62.28136664 42.7925852 65.76989601 46.74144039 68 54 C69.19328542 60.95728019 67.8489347 67.09075319 64 73 C59.61890859 77.96668283 54.12686286 81.57558597 47.44148254 82.26312256 C44.41644115 82.34603128 41.40473294 82.33746105 38.37890625 82.29296875 C37.40304565 82.28994751 36.42718506 82.28692627 35.42175293 82.28381348 C31.80189324 82.26820397 28.18218518 82.22632038 24.5625 82.1875 C12.4040625 82.0946875 12.4040625 82.0946875 0 82 C0 54.94 0 27.88 0 0 Z M23 16 C23 21.61 23 27.22 23 33 C31.43102559 33.41007442 31.43102559 33.41007442 39 30 C40.56471233 26.87057535 40.69701958 23.38917777 40 20 C38.48475573 17.62472537 38.48475573 17.62472537 36 16 C32.72599522 15.51736211 32.72599522 15.51736211 29.25 15.75 C26.15625 15.87375 26.15625 15.87375 23 16 Z M23 46 C23 52.6 23 59.2 23 66 C32.1502395 66.84802596 32.1502395 66.84802596 40.75 64.375 C43.44448795 61.53081828 44.46513684 59.89686015 45 56 C44.16570739 52.48405257 43.47239974 50.01990616 40.3984375 47.890625 C34.7381865 45.42154432 29.0744708 45.77220735 23 46 Z " fill="#107764" transform="translate(373,403)"/>
<path d="M0 0 C6.93 0 13.86 0 21 0 C21.495 20.295 21.495 20.295 22 41 C25.63 36.38 29.26 31.76 33 27 C37 22 37 22 39.74902344 21.43237305 C40.77543945 21.45855713 41.80185547 21.48474121 42.859375 21.51171875 C43.97441406 21.52783203 45.08945312 21.54394531 46.23828125 21.56054688 C47.39714844 21.60244141 48.55601562 21.64433594 49.75 21.6875 C50.92433594 21.71005859 52.09867188 21.73261719 53.30859375 21.75585938 C56.20701637 21.8147704 59.10286427 21.89698369 62 22 C58.68167141 26.52550396 55.33214043 30.89016824 51.5 35 C47.70741619 39.14553154 44.25848967 43.42533607 41 48 C41.36609375 48.57363281 41.7321875 49.14726562 42.109375 49.73828125 C46.1695016 56.10881323 50.21290123 62.48985514 54.25 68.875 C54.76916992 69.69524658 55.28833984 70.51549316 55.82324219 71.3605957 C56.31985352 72.146521 56.81646484 72.93244629 57.328125 73.7421875 C57.7705957 74.4419873 58.21306641 75.14178711 58.66894531 75.86279297 C60.14050189 78.22559677 61.57364831 80.60968536 63 83 C45.36862523 85.4204922 45.36862523 85.4204922 37 83 C31.44698119 78.64359514 28.54751924 72.15421353 25.91601562 65.74414062 C25.61373047 65.16857422 25.31144531 64.59300781 25 64 C24.34 64 23.68 64 23 64 C21.48578999 65.51421001 21.78690144 66.92472768 21.68359375 69.03515625 C21.64548584 69.76355713 21.60737793 70.49195801 21.56811523 71.24243164 C21.50346069 72.63836548 21.50346069 72.63836548 21.4375 74.0625 C21.293125 77.011875 21.14875 79.96125 21 83 C14.07 83 7.14 83 0 83 C0 55.61 0 28.22 0 0 Z " fill="#107764" transform="translate(659,402)"/>
<path d="M0 0 C6.93 0 13.86 0 21 0 C21.495 20.295 21.495 20.295 22 41 C25.63 36.38 29.26 31.76 33 27 C37 22 37 22 39.74902344 21.43237305 C40.77543945 21.45855713 41.80185547 21.48474121 42.859375 21.51171875 C43.97441406 21.52783203 45.08945312 21.54394531 46.23828125 21.56054688 C47.39714844 21.60244141 48.55601562 21.64433594 49.75 21.6875 C50.92433594 21.71005859 52.09867187 21.73261719 53.30859375 21.75585938 C56.20701637 21.8147704 59.10286427 21.89698369 62 22 C58.68167141 26.52550396 55.33214043 30.89016824 51.5 35 C47.70741619 39.14553154 44.25848967 43.42533607 41 48 C41.36609375 48.57363281 41.7321875 49.14726562 42.109375 49.73828125 C46.1695016 56.10881323 50.21290123 62.48985514 54.25 68.875 C54.76916992 69.69524658 55.28833984 70.51549316 55.82324219 71.3605957 C56.31985352 72.146521 56.81646484 72.93244629 57.328125 73.7421875 C57.7705957 74.4419873 58.21306641 75.14178711 58.66894531 75.86279297 C60.14050189 78.22559677 61.57364831 80.60968536 63 83 C45.36862523 85.4204922 45.36862523 85.4204922 37 83 C31.44698119 78.64359514 28.54751924 72.15421353 25.91601562 65.74414062 C25.61373047 65.16857422 25.31144531 64.59300781 25 64 C24.34 64 23.68 64 23 64 C21.48578999 65.51421001 21.78690144 66.92472768 21.68359375 69.03515625 C21.64548584 69.76355713 21.60737793 70.49195801 21.56811523 71.24243164 C21.50346069 72.63836548 21.50346069 72.63836548 21.4375 74.0625 C21.293125 77.011875 21.14875 79.96125 21 83 C14.07 83 7.14 83 0 83 C0 55.61 0 28.22 0 0 Z " fill="#107764" transform="translate(306,402)"/>
<path d="M0 0 C6.93 0 13.86 0 21 0 C21.04898438 2.44535156 21.09796875 4.89070313 21.1484375 7.41015625 C21.20255391 9.79652665 21.25981933 12.18280234 21.31738281 14.5690918 C21.35550299 16.21875865 21.3903845 17.86850382 21.421875 19.51831055 C21.4678966 21.89920921 21.52582635 24.27957652 21.5859375 26.66015625 C21.59748871 27.38960953 21.60903992 28.11906281 21.62094116 28.87062073 C21.75267699 33.51292332 22.3540974 37.60227833 24 42 C26.88443746 44.32357511 26.88443746 44.32357511 30.5 44 C34.14850222 43.36531442 34.14850222 43.36531442 35.68676758 40.47998047 C37.27374496 36.27459366 37.47516493 32.77296473 37.51171875 28.3203125 C37.52966995 27.50754852 37.54762115 26.69478455 37.56611633 25.85739136 C37.61998358 23.2799792 37.65403836 20.7027497 37.6875 18.125 C37.72069399 16.36976638 37.75518557 14.61455679 37.79101562 12.859375 C37.87812276 8.57289383 37.93838972 4.28722564 38 0 C44.93 0 51.86 0 59 0 C59 20.13 59 40.26 59 61 C52.4 61 45.8 61 39 61 C38.505 58.03 38.505 58.03 38 55 C37.18595703 55.63228516 37.18595703 55.63228516 36.35546875 56.27734375 C35.64003906 56.82519531 34.92460938 57.37304688 34.1875 57.9375 C33.47980469 58.48277344 32.77210938 59.02804687 32.04296875 59.58984375 C28.19831068 62.24361347 24.74166085 62.19179986 20.1875 62.25 C18.38345703 62.28867187 18.38345703 62.28867187 16.54296875 62.328125 C11.14005091 61.82774452 8.01117853 60.03415986 4.25 56.1875 C-0.3215003 49.7112079 -0.2745383 43.78556093 -0.1953125 36.1328125 C-0.1924826 35.09808807 -0.18965271 34.06336365 -0.18673706 32.99728394 C-0.17558048 29.70640286 -0.15048397 26.41579822 -0.125 23.125 C-0.11496437 20.88802478 -0.10583953 18.65104527 -0.09765625 16.4140625 C-0.0773612 10.94251726 -0.03820333 5.47156651 0 0 Z " fill="#107764" transform="translate(516,424)"/>
<path d="M0 0 C1.20269531 -0.02578125 2.40539062 -0.0515625 3.64453125 -0.078125 C9.04744909 0.42225548 12.17632147 2.21584014 15.9375 6.0625 C20.5090003 12.5387921 20.4620383 18.46443907 20.3828125 26.1171875 C20.3799826 27.15191193 20.37715271 28.18663635 20.37423706 29.25271606 C20.36308048 32.54359714 20.33798397 35.83420178 20.3125 39.125 C20.30246437 41.36197522 20.29333953 43.59895473 20.28515625 45.8359375 C20.2648612 51.30748274 20.22570333 56.77843349 20.1875 62.25 C13.2575 62.25 6.3275 62.25 -0.8125 62.25 C-0.86148438 59.80464844 -0.91046875 57.35929687 -0.9609375 54.83984375 C-1.01505391 52.45347335 -1.07231933 50.06719766 -1.12988281 47.6809082 C-1.16800299 46.03124135 -1.2028845 44.38149618 -1.234375 42.73168945 C-1.2803966 40.35079079 -1.33832635 37.97042348 -1.3984375 35.58984375 C-1.40998871 34.86039047 -1.42153992 34.13093719 -1.43344116 33.37937927 C-1.58725434 27.95908248 -1.80524368 22.25725632 -5.8125 18.25 C-9.27036015 17.74992206 -9.27036015 17.74992206 -12.8125 18.25 C-17.26408155 22.5531955 -17.00631915 27.81381289 -17.12890625 33.63671875 C-17.14968735 34.45372757 -17.17046844 35.27073639 -17.19187927 36.11250305 C-17.25723079 38.72075034 -17.31619273 41.32909775 -17.375 43.9375 C-17.41819892 45.70639054 -17.46181365 47.47527097 -17.50585938 49.24414062 C-17.61367956 53.57932597 -17.71285972 57.91458802 -17.8125 62.25 C-24.7425 62.25 -31.6725 62.25 -38.8125 62.25 C-38.8125 42.12 -38.8125 21.99 -38.8125 1.25 C-32.2125 1.25 -25.6125 1.25 -18.8125 1.25 C-18.4825 3.23 -18.1525 5.21 -17.8125 7.25 C-17.26980469 6.82847656 -16.72710937 6.40695312 -16.16796875 5.97265625 C-15.45253906 5.42480469 -14.73710937 4.87695312 -14 4.3125 C-13.29230469 3.76722656 -12.58460938 3.22195313 -11.85546875 2.66015625 C-8.01081068 0.00638653 -4.55416085 0.05820014 0 0 Z " fill="#107764" transform="translate(276.8125,422.75)"/>
<path d="M0 0 C3.52544219 2.57016108 6.09535856 5.07555422 8.421875 8.765625 C8.83179688 9.35214844 9.24171875 9.93867188 9.6640625 10.54296875 C14.04094712 18.16478507 13.61264283 28.29306499 12.421875 36.765625 C10.13365604 44.39841193 6.20246748 50.49950223 -0.578125 54.765625 C-1.17625 55.17554688 -1.774375 55.58546875 -2.390625 56.0078125 C-10.51660444 60.61041804 -21.82940693 60.03835114 -30.71875 58.0703125 C-33.19876771 57.16502996 -35.32710233 56.13956974 -37.578125 54.765625 C-38.21878906 54.37632812 -38.85945313 53.98703125 -39.51953125 53.5859375 C-45.70579565 49.06983087 -49.73604347 42.08941241 -50.92822266 34.55224609 C-51.9682261 23.93107405 -51.09513226 14.59465258 -44.578125 5.765625 C-42.46808661 3.24487354 -40.38424032 1.4707494 -37.578125 -0.234375 C-36.90652344 -0.64429688 -36.23492187 -1.05421875 -35.54296875 -1.4765625 C-24.64798793 -6.89602123 -10.3325529 -6.10819426 0 0 Z M-25.578125 14.765625 C-29.5727455 19.18824055 -29.8672094 23.68894947 -29.80078125 29.44921875 C-29.38700049 33.75399051 -27.74783391 37.09461227 -25.265625 40.640625 C-22.69110086 42.35697443 -20.65389712 42.64259412 -17.578125 42.765625 C-13.89715946 41.13915185 -11.65974202 39.20029309 -9.578125 35.765625 C-7.90030591 30.21950077 -7.69475977 24.30555967 -9.890625 18.890625 C-12.09964351 14.79984998 -12.97578833 13.25329268 -17.453125 11.890625 C-21.24183614 11.73907655 -22.62139425 12.44818738 -25.578125 14.765625 Z " fill="#107764" transform="translate(496.578125,427.234375)"/>
<path d="M0 0 C7.59 0 15.18 0 23 0 C23 21.12 23 42.24 23 64 C33.89 64 44.78 64 56 64 C56 69.94 56 75.88 56 82 C37.52 82 19.04 82 0 82 C0 54.94 0 27.88 0 0 Z " fill="#107764" transform="translate(144,403)"/>
<path d="M0 0 C6.93 0 13.86 0 21 0 C21 4.95 21 9.9 21 15 C24.63 15 28.26 15 32 15 C32 19.95 32 24.9 32 30 C28.37 30 24.74 30 21 30 C21.11377521 34.08393107 21.24053489 38.16674274 21.375 42.25 C21.4059375 43.40886719 21.436875 44.56773437 21.46875 45.76171875 C21.50742187 46.87675781 21.54609375 47.99179687 21.5859375 49.140625 C21.63306885 50.68024902 21.63306885 50.68024902 21.68115234 52.25097656 C22.03929691 55.97063763 22.03929691 55.97063763 24 59 C26.64 59.33 29.28 59.66 32 60 C32 65.61 32 71.22 32 77 C23.38453067 78.13361439 12.90997643 79.34988372 5.4375 73.875 C-1.48399196 65.71118897 -0.35756873 56.06507372 -0.1875 46 C-0.17242973 44.44662752 -0.15874546 42.89324094 -0.14648438 41.33984375 C-0.11365497 37.55954385 -0.06200254 33.77992937 0 30 C-2.31 30 -4.62 30 -7 30 C-7 25.05 -7 20.1 -7 15 C-4.69 15 -2.38 15 0 15 C0 10.05 0 5.1 0 0 Z " fill="#107764" transform="translate(588,409)"/>
<path d="M0 0 C15.84 0 31.68 0 48 0 C48 59.07 48 118.14 48 179 C88.9921875 178.87625 88.9921875 178.87625 130.8125 178.75 C143.74014526 178.72631348 143.74014526 178.72631348 156.92895508 178.70214844 C164.67667126 178.66891506 164.67667126 178.66891506 172.42436218 178.63043213 C175.86642328 178.61347569 179.30831009 178.60756624 182.75041199 178.60845947 C187.15059297 178.60923424 191.55031287 178.59081523 195.95037401 178.55891085 C197.55921892 178.5504378 199.16811607 178.54852299 200.77697337 178.55417585 C211.49971871 178.58706109 221.7388723 178.24382335 230 170.625 C234.36743552 165.68152382 236.68236432 161.21527093 236.40234375 154.55078125 C234.80725227 144.43821096 229.33461638 136.87350101 222 130 C221.34 129.67 220.68 129.34 220 129 C221.39848491 125.86968554 223.05620549 123.65139968 225.4140625 121.171875 C226.09339844 120.45386719 226.77273438 119.73585938 227.47265625 118.99609375 C228.53806641 117.88427734 228.53806641 117.88427734 229.625 116.75 C230.31207031 116.02425781 230.99914062 115.29851562 231.70703125 114.55078125 C235.84339233 110.19712541 240.05297945 105.9314829 244.34912109 101.73535156 C246.19275578 99.89676769 246.19275578 99.89676769 248 97 C252.55451016 98.47576307 255.85884562 101.0451001 259.4375 104.125 C260.01443604 104.6214502 260.59137207 105.11790039 261.18579102 105.62939453 C272.95925175 115.97106077 280.40871082 131.28702663 281.87109375 146.96875 C281.93490234 147.97421875 281.93490234 147.97421875 282 149 C282.05285156 149.7115625 282.10570312 150.423125 282.16015625 151.15625 C282.9053385 170.59578706 275.2362585 188.58303693 262.75 203.1875 C252.04435705 214.57686468 235.05044636 225.70684812 218.92781067 226.30992126 C216.9192402 226.3479243 214.91045156 226.37530105 212.90161133 226.39428711 C211.22822095 226.42106757 211.22822095 226.42106757 209.5210247 226.44838905 C205.7705961 226.50532591 202.02015512 226.54786094 198.26953125 226.58984375 C196.25873804 226.61719018 194.24794487 226.64454746 192.23716217 226.67265624 C157.42401233 227.15614368 122.60631966 227.32579272 87.79061329 227.51741064 C78.61899259 227.56801034 69.44739563 227.62245066 60.2757982 227.67708123 C41.51722095 227.78873723 22.75862111 227.89598548 4 228 C3.26132622 221.49368984 2.83586345 215.06753033 2.76585388 208.52133179 C2.7527488 207.62257312 2.73964372 206.72381446 2.72614151 205.79782069 C2.68370176 202.81626359 2.64738458 199.83466501 2.61108398 196.85302734 C2.58175083 194.7037913 2.55203702 192.55456042 2.52197266 190.40533447 C2.4417274 184.59210926 2.3667875 178.77882648 2.29281878 172.96551847 C2.21450704 166.88229483 2.13129006 160.79913831 2.04859924 154.7159729 C1.89288437 143.20616076 1.74156425 131.69629524 1.59183317 120.18640387 C1.42110228 107.07875743 1.24545666 93.97117827 1.06940353 80.8636024 C0.70747712 53.90913855 0.35235409 26.95459079 0 0 Z M2 1 C1.85541077 34.40011191 2.35515604 67.78805333 2.83422244 101.18360198 C2.91473703 106.80881791 2.99305238 112.4340613 3.07006836 118.05932617 C3.56291168 154.04321792 4.09513046 190.02355908 5 226 C33.05468751 226.07634517 61.1090922 226.06647327 89.16381073 226.0079422 C91.77978243 226.00252626 94.39575387 225.99727987 97.01172638 225.99230194 C114.38521978 225.95899963 131.75848109 225.90672794 149.13177013 225.81448841 C156.41181643 225.77611461 163.69175738 225.74413806 170.97189331 225.72927856 C177.2488419 225.71637898 183.52554715 225.68956184 189.80235726 225.64548725 C193.04193935 225.62313505 196.28116914 225.6091818 199.52083778 225.60809898 C203.07839878 225.60573135 206.63499013 225.57871745 210.19238281 225.54589844 C211.21741378 225.55092912 212.24244474 225.5559598 213.29853725 225.56114292 C232.09720344 225.29276911 248.25985056 215.04900155 261 202 C261.66515625 201.35546875 262.3303125 200.7109375 263.015625 200.046875 C275.42142307 187.19402114 280.69320602 169.14882114 280.47094727 151.65014648 C279.89666603 137.52770255 274.80117776 121.25489876 264.953125 110.73046875 C260.20721688 106.52559416 255.09988374 102.76059676 250 99 C241.9478972 105.71008567 234.79749777 113.02997347 228 121 C227.41605469 121.67933594 226.83210937 122.35867187 226.23046875 123.05859375 C224.81744048 124.703266 223.40829078 126.35126933 222 128 C222.87011719 128.76570313 222.87011719 128.76570313 223.7578125 129.546875 C231.59187167 136.83797958 237.08245269 145.35377245 238.375 156.125 C237.72053246 162.88783127 234.72689285 168.77383817 229.75 173.4375 C220.83441251 179.94815629 210.84430788 179.44364433 200.28100586 179.43237305 C198.56779811 179.44148781 196.85459686 179.45190299 195.14140415 179.46350574 C190.5734509 179.49088149 186.00562399 179.50057129 181.43759918 179.50647736 C177.14359437 179.51474346 172.8497383 179.53912001 168.55578613 179.56213379 C156.01642143 179.62002716 143.47694868 179.65220849 130.9375 179.6875 C102.908125 179.790625 74.87875 179.89375 46 180 C46 120.93 46 61.86 46 1 C31.48 1 16.96 1 2 1 Z " fill="#024F3A" transform="translate(265,122)"/>
<path d="M0 0 C6.93 0 13.86 0 21 0 C21 20.13 21 40.26 21 61 C14.07 61 7.14 61 0 61 C0 40.87 0 20.74 0 0 Z " fill="#107764" transform="translate(628,424)"/>
<path d="M0 0 C6.93 0 13.86 0 21 0 C21 20.13 21 40.26 21 61 C14.07 61 7.14 61 0 61 C0 40.87 0 20.74 0 0 Z " fill="#107764" transform="translate(207,424)"/>
<path d="M0 0 C-4.90086353 58.10236684 -4.90086353 58.10236684 -6.56674194 77.206604 C-6.6878597 78.5984195 -6.80817439 79.99030514 -6.92764282 81.38226318 C-7.0900635 83.27197034 -7.25587216 85.1613854 -7.421875 87.05078125 C-7.51049805 88.06825439 -7.59912109 89.08572754 -7.69042969 90.1340332 C-8.0124116 93.11490521 -8.47897061 96.04795717 -9 99 C-13.33960363 96.25244031 -17.00234334 93.29508062 -20.75 89.75 C-25.9530117 84.88099867 -31.35717966 80.35695642 -37 76 C-42.9392812 81.77680846 -48.35666022 87.89311349 -53.72265625 94.19921875 C-54.73144547 95.38308982 -55.74057066 96.56667468 -56.75 97.75 C-57.26433594 98.35312012 -57.77867187 98.95624023 -58.30859375 99.57763672 C-62.13114824 104.03847222 -66.07169996 108.37211931 -70.06982422 112.67529297 C-72.96748224 115.81503117 -75.70346573 119.04166489 -78.375 122.375 C-82.98571639 128.10522487 -87.97756638 133.43085078 -93.00390625 138.79296875 C-97.38116714 143.4639332 -101.5514289 148.29747541 -105.69921875 153.171875 C-106.71581756 154.36486315 -107.73275588 155.55756205 -108.75 156.75 C-109.26481934 157.35368408 -109.77963867 157.95736816 -110.31005859 158.5793457 C-114.13212252 163.03960984 -118.07221266 167.37267114 -122.06982422 171.67529297 C-124.96748224 174.81503117 -127.70346573 178.04166489 -130.375 181.375 C-134.97824962 187.09594512 -139.9607228 192.41365182 -144.98046875 197.765625 C-150.98111758 203.84853166 -150.98111758 203.84853166 -155.98490906 210.69680786 C-158.21228388 214.05471052 -159.87826531 215.76072314 -163.89775085 216.61811829 C-167.59346704 216.81099784 -171.23026483 216.78614348 -174.9296875 216.68359375 C-176.28872112 216.67052328 -177.64778794 216.66056594 -179.00686646 216.65357971 C-182.56860863 216.62696545 -186.1283239 216.55830925 -189.68927002 216.48065186 C-193.3290261 216.40879384 -196.96911269 216.37702068 -200.609375 216.34179688 C-207.7404081 216.26692523 -214.87007111 216.14759788 -222 216 C-220.19973587 212.13868341 -217.71905467 209.32024934 -214.8125 206.25 C-213.81051284 205.17511738 -212.80920995 204.09959648 -211.80859375 203.0234375 C-211.32374512 202.50362305 -210.83889648 201.98380859 -210.33935547 201.44824219 C-208.08503483 199.01065013 -205.91722515 196.50024527 -203.7421875 193.9921875 C-201.68499601 191.63979365 -199.59403085 189.31965034 -197.5 187 C-194.81016569 184.01937279 -192.13689636 181.02754767 -189.5 178 C-186.10746907 174.10487189 -182.64805799 170.27217237 -179.1875 166.4375 C-177.27445851 164.30582519 -175.38112388 162.1598089 -173.5 160 C-170.10746907 156.10487189 -166.64805799 152.27217237 -163.1875 148.4375 C-161.27445851 146.30582519 -159.38112388 144.1598089 -157.5 142 C-154.10746907 138.10487189 -150.64805799 134.27217237 -147.1875 130.4375 C-145.27445851 128.30582519 -143.38112388 126.1598089 -141.5 124 C-138.10746907 120.10487189 -134.64805799 116.27217237 -131.1875 112.4375 C-129.27445851 110.30582519 -127.38112388 108.1598089 -125.5 106 C-122.10746907 102.10487189 -118.64805799 98.27217237 -115.1875 94.4375 C-113.27445851 92.30582519 -111.38112388 90.1598089 -109.5 88 C-106.10746907 84.10487189 -102.64805799 80.27217237 -99.1875 76.4375 C-97.27445851 74.30582519 -95.38112388 72.1598089 -93.5 70 C-90.86310364 66.97245233 -88.18983431 63.98062721 -85.5 61 C-82.67455334 57.86544464 -79.85495597 54.72650936 -77.0625 51.5625 C-76.51722656 50.94503906 -75.97195313 50.32757813 -75.41015625 49.69140625 C-73.81877961 47.84382494 -73.81877961 47.84382494 -72 45 C-77.63273883 39.20884039 -83.59476958 33.91320142 -89.73046875 28.6640625 C-90.64441406 27.86742188 -91.55835938 27.07078125 -92.5 26.25 C-93.3559375 25.51265625 -94.211875 24.7753125 -95.09375 24.015625 C-97 22 -97 22 -97 19 C-84.94433401 16.51809319 -72.88780954 14.04040492 -60.83016586 11.56812286 C-55.2315619 10.42005447 -49.63326593 9.27052616 -44.03564453 8.11767578 C-38.63527482 7.00550581 -33.23413483 5.89715205 -27.83243561 4.79145813 C-25.77005269 4.36859926 -23.70795274 3.9443579 -21.64614105 3.51872253 C-18.76189759 2.92355064 -15.87669406 2.33326857 -12.99121094 1.74414062 C-12.13597336 1.56647659 -11.28073578 1.38881256 -10.39958191 1.20576477 C-9.61156693 1.04589584 -8.82355194 0.88602692 -8.01165771 0.72131348 C-7.32953091 0.58120094 -6.6474041 0.44108841 -5.94460678 0.29673004 C-4 0 -4 0 0 0 Z M-12.04003906 3.11401367 C-13.26362122 3.35814499 -14.48720337 3.60227631 -15.74786377 3.85380554 C-17.08713819 4.1250912 -18.42639134 4.39648191 -19.765625 4.66796875 C-21.15966672 4.94776431 -22.55377197 5.22724354 -23.94793701 5.50642395 C-27.63508203 6.24577472 -31.32125041 6.98989145 -35.00726318 7.73486328 C-37.9422619 8.32721464 -40.87794204 8.91614262 -43.8136673 9.50488091 C-60.89117396 12.92993398 -77.95553353 16.41358747 -95 20 C-93.312782 23.62813516 -91.4080612 25.66913551 -88.375 28.3125 C-87.48167969 29.09625 -86.58835937 29.88 -85.66796875 30.6875 C-84.34732422 31.8321875 -84.34732422 31.8321875 -83 33 C-81.88044922 33.99 -81.88044922 33.99 -80.73828125 35 C-77.23211549 38.09878269 -73.68877838 41.11814189 -70 44 C-71.66077299 48.14689982 -74.65980945 51.06716167 -77.6875 54.25 C-78.78201327 55.41725351 -79.87576745 56.58521929 -80.96875 57.75390625 C-81.75765625 58.59526123 -81.75765625 58.59526123 -82.5625 59.45361328 C-84.86621497 61.9318284 -87.07932331 64.48461939 -89.29296875 67.04296875 C-91.33633431 69.3855915 -93.41680859 71.69273422 -95.5 74 C-98.18983431 76.98062721 -100.86310364 79.97245233 -103.5 83 C-106.89253093 86.89512811 -110.35194201 90.72782763 -113.8125 94.5625 C-115.72554149 96.69417481 -117.61887612 98.8401911 -119.5 101 C-122.89253093 104.89512811 -126.35194201 108.72782763 -129.8125 112.5625 C-131.72554149 114.69417481 -133.61887612 116.8401911 -135.5 119 C-138.89253093 122.89512811 -142.35194201 126.72782763 -145.8125 130.5625 C-147.72554149 132.69417481 -149.61887612 134.8401911 -151.5 137 C-154.89374015 140.89651647 -158.35430003 144.73064945 -161.81640625 148.56640625 C-163.70848685 150.67511146 -165.57905758 152.79919801 -167.4375 154.9375 C-171.08937053 159.13164365 -174.84266184 163.23094292 -178.58984375 167.33984375 C-181.16993136 170.18755795 -183.70201856 173.07244018 -186.22265625 175.97265625 C-188.29359487 178.33489173 -190.39512848 180.66795853 -192.5 183 C-195.7626799 186.61540205 -198.9857495 190.2608956 -202.18359375 193.93359375 C-204.28916488 196.32896392 -206.42448688 198.69605142 -208.5625 201.0625 C-210.04267801 202.70742385 -211.5219024 204.35320648 -213 206 C-213.6290625 206.69996094 -214.258125 207.39992188 -214.90625 208.12109375 C-217.94368151 211.11555698 -217.94368151 211.11555698 -219 215 C-211.72428203 215.2327647 -204.44937907 215.4099036 -197.17067814 215.51812172 C-193.78976582 215.57009305 -190.41141828 215.64043251 -187.03198242 215.75439453 C-183.13653008 215.87628426 -179.24467324 215.93253585 -175.34765625 215.9765625 C-174.1473024 216.02817535 -172.94694855 216.07978821 -171.71022034 216.13296509 C-166.64834596 216.13631737 -163.33490102 216.06349322 -159.28756714 212.83905029 C-157.00727621 210.32178801 -154.98970078 207.74978443 -153 205 C-151.91035284 203.73732304 -150.80909489 202.48438606 -149.6875 201.25 C-147.53596773 198.78542724 -145.4050508 196.30426757 -143.28515625 193.8125 C-137.94341128 187.53966528 -132.53835454 181.36077933 -126.93017578 175.32470703 C-124.03251776 172.18496883 -121.29653427 168.95833511 -118.625 165.625 C-114.01428361 159.89477513 -109.02243362 154.56914922 -103.99609375 149.20703125 C-99.61883286 144.5360668 -95.4485711 139.70252459 -91.30078125 134.828125 C-90.28418244 133.63513685 -89.26724412 132.44243795 -88.25 131.25 C-87.73518066 130.64631592 -87.22036133 130.04263184 -86.68994141 129.4206543 C-82.86787748 124.96039016 -78.92778734 120.62732886 -74.93017578 116.32470703 C-72.03251776 113.18496883 -69.29653427 109.95833511 -66.625 106.625 C-62.02407059 100.90693845 -57.04421322 95.59178199 -52.02734375 90.2421875 C-47.12598755 85.01266274 -42.41372037 79.64956208 -38 74 C-34.32043709 75.56232021 -31.83484207 77.83584082 -28.9375 80.5625 C-20.10460648 89.18897853 -20.10460648 89.18897853 -10 96 C-9.24986739 88.2178148 -8.50199134 80.43541598 -7.75671577 72.65276432 C-7.41029579 69.03590598 -7.06320194 65.41911541 -6.71435547 61.80249023 C-5.33315936 47.47780396 -3.96912446 33.15289737 -2.8046875 18.80859375 C-2.72131134 17.79394547 -2.63793518 16.77929718 -2.55203247 15.73390198 C-2.18948145 11.14284637 -1.90025691 6.60997081 -2 2 C-5.61395919 2 -8.51765965 2.40568792 -12.04003906 3.11401367 Z " fill="#014C38" transform="translate(598,74)"/>
<path d="M0 0 C14.52 0 29.04 0 44 0 C44 41.25 44 82.5 44 125 C54.89 125 65.78 125 77 125 C72.93511221 131.09733169 68.94021363 136.69798495 64.25 142.25 C57.24051393 150.64965894 50.56416033 159.24778622 44 168 C29.48 168 14.96 168 0 168 C0 112.56 0 57.12 0 0 Z M2 1 C2 55.78 2 110.56 2 167 C15.53 167 29.06 167 43 167 C46.3 162.71 49.6 158.42 53 154 C54.8283345 151.66274765 56.66050298 149.32847724 58.5 147 C62.24615754 142.24231899 65.98046833 137.47574924 69.6875 132.6875 C70.33912109 131.8512207 70.33912109 131.8512207 71.00390625 130.99804688 C73.0968479 128.74256827 73.0968479 128.74256827 74 126 C63.77 126 53.54 126 43 126 C43 84.75 43 43.5 43 1 C29.47 1 15.94 1 2 1 Z " fill="#024F3A" transform="translate(321,122)"/>
<path d="M0 0 C2.89683868 2.2015974 4.39297231 3.78594462 6 7 C6.54016597 11.50728651 6.60322525 14.94994123 4.3125 18.9375 C0.46740257 22.36691122 -2.40563002 23.21965774 -7.5 23 C-11.08200786 22.4677818 -12.08336798 21.93364589 -15.0625 19.5625 C-17.51774891 16.03307969 -17.64253827 12.54796708 -17.43359375 8.34375 C-16.82175407 5.03650851 -15.45903328 3.24205976 -13 1 C-9.04603037 -0.97698481 -4.29880647 -0.57069292 0 0 Z " fill="#107764" transform="translate(644,396)"/>
<path d="M0 0 C2.89683868 2.2015974 4.39297231 3.78594462 6 7 C6.54016597 11.50728651 6.60322525 14.94994123 4.3125 18.9375 C0.46740257 22.36691122 -2.40563002 23.21965774 -7.5 23 C-11.08200786 22.4677818 -12.08336798 21.93364589 -15.0625 19.5625 C-17.51774891 16.03307969 -17.64253827 12.54796708 -17.43359375 8.34375 C-16.82175407 5.03650851 -15.45903328 3.24205976 -13 1 C-9.04603037 -0.97698481 -4.29880647 -0.57069292 0 0 Z " fill="#107764" transform="translate(223,396)"/>
</svg>
